<?xml version="1.0" encoding="utf-8" standalone="no"?>
<!DOCTYPE svg PUBLIC "-//W3C//DTD SVG 1.1//EN"
  "http://www.w3.org/Graphics/SVG/1.1/DTD/svg11.dtd">
<svg height="345.6pt" version="1.1" viewBox="0 0 460.8 345.6" width="460.8pt" xmlns="http://www.w3.org/2000/svg" xmlns:xlink="http://www.w3.org/1999/xlink">
 <metadata>
  <rdf:RDF xmlns:cc="http://creativecommons.org/ns#" xmlns:dc="http://purl.org/dc/elements/1.1/" xmlns:rdf="http://www.w3.org/1999/02/22-rdf-syntax-ns#">
   <cc:Work>
    <dc:type rdf:resource="http://purl.org/dc/dcmitype/StillImage"/>
    <dc:date>2022-05-20T07:17:09.032272</dc:date>
    <dc:format>image/svg+xml</dc:format>
    <dc:creator>
     <cc:Agent>
      <dc:title>Matplotlib v3.4.3, https://matplotlib.org/</dc:title>
     </cc:Agent>
    </dc:creator>
   </cc:Work>
  </rdf:RDF>
 </metadata>
 <defs>
  <style type="text/css">*{stroke-linecap:butt;stroke-linejoin:round;}</style>
 </defs>
 <g id="figure_1">
  <g id="patch_1">
   <path d="M 0 345.6 
L 460.8 345.6 
L 460.8 0 
L 0 0 
z
" style="fill:#ffffff;"/>
  </g>
  <g id="axes_1">
   <g id="patch_2">
    <path d="M 103.104 307.584 
L 369.216 307.584 
L 369.216 41.472 
L 103.104 41.472 
z
" style="fill:#ffffff;"/>
   </g>
   <g id="PolyCollection_1">
    <defs>
     <path d="M 103.370112 -38.016134 
L 103.370112 -38.282112 
L 103.636224 -38.548224 
L 103.902336 -38.814336 
L 104.168448 -39.080448 
L 104.43456 -39.34656 
L 104.700672 -39.612672 
L 104.966784 -39.878784 
L 105.232896 -40.144896 
L 105.499008 -40.411008 
L 105.76512 -40.67712 
L 106.031232 -40.943232 
L 106.297344 -41.209344 
L 106.563456 -41.475456 
L 106.829568 -41.741568 
L 107.09568 -42.00768 
L 107.361792 -42.273792 
L 107.627904 -42.539904 
L 107.894016 -42.806016 
L 108.160128 -43.072128 
L 108.42624 -43.33824 
L 108.692352 -43.604352 
L 108.958464 -43.870464 
L 109.224576 -44.136576 
L 109.490688 -44.402688 
L 109.7568 -44.6688 
L 110.022912 -44.934912 
L 110.289024 -45.201024 
L 110.555136 -45.467136 
L 110.821248 -45.733248 
L 111.08736 -45.99936 
L 111.353472 -46.265472 
L 111.619584 -46.531584 
L 111.885696 -46.797696 
L 112.151808 -47.063808 
L 112.41792 -47.32992 
L 112.684032 -47.596032 
L 112.950144 -47.862144 
L 113.216256 -48.128256 
L 113.482368 -48.394368 
L 113.74848 -48.66048 
L 114.014592 -48.926592 
L 114.280704 -49.192704 
L 114.546816 -49.458816 
L 114.812928 -49.724928 
L 115.07904 -49.99104 
L 115.345152 -50.257152 
L 115.611264 -50.523264 
L 115.877376 -50.789376 
L 116.143488 -51.055488 
L 116.4096 -51.3216 
L 116.675712 -51.587712 
L 116.941824 -51.853824 
L 117.207936 -52.119936 
L 117.474048 -52.386048 
L 117.74016 -52.65216 
L 118.006272 -52.918272 
L 118.272384 -53.184384 
L 118.538496 -53.450496 
L 118.804608 -53.716608 
L 119.07072 -53.98272 
L 119.336832 -54.248832 
L 119.602944 -54.514944 
L 119.869056 -54.781056 
L 120.135168 -55.047168 
L 120.40128 -55.31328 
L 120.667392 -55.579392 
L 120.933504 -55.845504 
L 121.199616 -56.111616 
L 121.465728 -56.377728 
L 121.73184 -56.64384 
L 121.997952 -56.909952 
L 122.264064 -57.176064 
L 122.530176 -57.442176 
L 122.796288 -57.708288 
L 123.0624 -57.9744 
L 123.328512 -58.240512 
L 123.594624 -58.506624 
L 123.860736 -58.772736 
L 124.126848 -59.038848 
L 124.39296 -59.30496 
L 124.659072 -59.571072 
L 124.925184 -59.837184 
L 125.191296 -60.103296 
L 125.457408 -60.369408 
L 125.72352 -60.63552 
L 125.989632 -60.901632 
L 126.255744 -61.167744 
L 126.521856 -61.433856 
L 126.787968 -61.699968 
L 127.05408 -61.96608 
L 127.320192 -62.232192 
L 127.586304 -62.498304 
L 127.852416 -62.764416 
L 128.118528 -63.030528 
L 128.38464 -63.29664 
L 128.650752 -63.562752 
L 128.916864 -63.828864 
L 129.182976 -64.094976 
L 129.449088 -64.361088 
L 129.7152 -64.6272 
L 129.981312 -64.893312 
L 130.247424 -65.159424 
L 130.513536 -65.425536 
L 130.779648 -65.691648 
L 131.04576 -65.95776 
L 131.311872 -66.223872 
L 131.577984 -66.489984 
L 131.844096 -66.756096 
L 132.110208 -67.022208 
L 132.37632 -67.28832 
L 132.642432 -67.554432 
L 132.908544 -67.820544 
L 133.174656 -68.086656 
L 133.440768 -68.352768 
L 133.70688 -68.61888 
L 133.972992 -68.884992 
L 134.239104 -69.151104 
L 134.505216 -69.417216 
L 134.771328 -69.683328 
L 135.03744 -69.94944 
L 135.303552 -70.215552 
L 135.569664 -70.481664 
L 135.835776 -70.747776 
L 136.101888 -71.013888 
L 136.368 -71.28 
L 136.634112 -71.546112 
L 136.900224 -71.812224 
L 137.166336 -72.078336 
L 137.432448 -72.344448 
L 137.69856 -72.61056 
L 137.964672 -72.876672 
L 138.230784 -73.142784 
L 138.496896 -73.408896 
L 138.763008 -73.675008 
L 139.02912 -73.94112 
L 139.295232 -74.207232 
L 139.561344 -74.473344 
L 139.827456 -74.739456 
L 140.093568 -75.005568 
L 140.35968 -75.27168 
L 140.625792 -75.537792 
L 140.891904 -75.803904 
L 141.158016 -76.070016 
L 141.424128 -76.336128 
L 141.69024 -76.60224 
L 141.956352 -76.868352 
L 142.222464 -77.134464 
L 142.488576 -77.400576 
L 142.754688 -77.666688 
L 143.0208 -77.9328 
L 143.286912 -78.198912 
L 143.553024 -78.465024 
L 143.819136 -78.731136 
L 144.085248 -78.997248 
L 144.35136 -79.26336 
L 144.617472 -79.529472 
L 144.883584 -79.795584 
L 145.149696 -80.061696 
L 145.415808 -80.327808 
L 145.68192 -80.59392 
L 145.948032 -80.860032 
L 146.214144 -81.126144 
L 146.480256 -81.392256 
L 146.746368 -81.658368 
L 147.01248 -81.92448 
L 147.278592 -82.190592 
L 147.544704 -82.456704 
L 147.810816 -82.722816 
L 148.076928 -82.988928 
L 148.34304 -83.25504 
L 148.609152 -83.521152 
L 148.875264 -83.787264 
L 149.141376 -84.053376 
L 149.407488 -84.319488 
L 149.6736 -84.5856 
L 149.939712 -84.851712 
L 150.205824 -85.117824 
L 150.471936 -85.383936 
L 150.738048 -85.650048 
L 151.00416 -85.91616 
L 151.270272 -86.182272 
L 151.536384 -86.448384 
L 151.802496 -86.714496 
L 152.068608 -86.980608 
L 152.33472 -87.24672 
L 152.600832 -87.512832 
L 152.866944 -87.778944 
L 153.133056 -88.045056 
L 153.399168 -88.311168 
L 153.66528 -88.57728 
L 153.931392 -88.843392 
L 154.197504 -89.109504 
L 154.463616 -89.375616 
L 154.729728 -89.641728 
L 154.99584 -89.90784 
L 155.261952 -90.173952 
L 155.528064 -90.440064 
L 155.794176 -90.706176 
L 156.060288 -90.972288 
L 156.3264 -91.2384 
L 156.592512 -91.504512 
L 156.858624 -91.770624 
L 157.124736 -92.036736 
L 157.390848 -92.302848 
L 157.65696 -92.56896 
L 157.923072 -92.835072 
L 158.189184 -93.101184 
L 158.455296 -93.367296 
L 158.721408 -93.633408 
L 158.98752 -93.89952 
L 159.253632 -94.165632 
L 159.519744 -94.431744 
L 159.785856 -94.697856 
L 160.051968 -94.963968 
L 160.31808 -95.23008 
L 160.584192 -95.496192 
L 160.850304 -95.762304 
L 161.116416 -96.028416 
L 161.382528 -96.294528 
L 161.64864 -96.56064 
L 161.914752 -96.826752 
L 162.180864 -97.092864 
L 162.446976 -97.358976 
L 162.713088 -97.625088 
L 162.9792 -97.8912 
L 163.245312 -98.157312 
L 163.511424 -98.423424 
L 163.777536 -98.689536 
L 164.043648 -98.955648 
L 164.30976 -99.22176 
L 164.575872 -99.487872 
L 164.841984 -99.753984 
L 165.108096 -100.020096 
L 165.374208 -100.286208 
L 165.64032 -100.55232 
L 165.906432 -100.818432 
L 166.172544 -101.084544 
L 166.438656 -101.350656 
L 166.704768 -101.616768 
L 166.97088 -101.88288 
L 167.236992 -102.148992 
L 167.503104 -102.415104 
L 167.769216 -102.681216 
L 168.035328 -102.947328 
L 168.30144 -103.21344 
L 168.567552 -103.479552 
L 168.833664 -103.745664 
L 169.099776 -104.011776 
L 169.365888 -104.277888 
L 169.632 -104.544 
L 169.898112 -104.810112 
L 170.164224 -105.076224 
L 170.430336 -105.342336 
L 170.696448 -105.608448 
L 170.96256 -105.87456 
L 171.228672 -106.140672 
L 171.494784 -106.406784 
L 171.760896 -106.672896 
L 172.027008 -106.939008 
L 172.29312 -107.20512 
L 172.559232 -107.471232 
L 172.825344 -107.737344 
L 173.091456 -108.003456 
L 173.357568 -108.269568 
L 173.62368 -108.53568 
L 173.889792 -108.801792 
L 174.155904 -109.067904 
L 174.422016 -109.334016 
L 174.688128 -109.600128 
L 174.95424 -109.86624 
L 175.220352 -110.132352 
L 175.486464 -110.398464 
L 175.752576 -110.664576 
L 176.018688 -110.930688 
L 176.2848 -111.1968 
L 176.550912 -111.462912 
L 176.817024 -111.729024 
L 177.083136 -111.995136 
L 177.349248 -112.261248 
L 177.61536 -112.52736 
L 177.881472 -112.793472 
L 178.147584 -113.059584 
L 178.413696 -113.325696 
L 178.679808 -113.591808 
L 178.94592 -113.85792 
L 179.212032 -114.124032 
L 179.478144 -114.390144 
L 179.744256 -114.656256 
L 180.010368 -114.922368 
L 180.27648 -115.18848 
L 180.542592 -115.454592 
L 180.808704 -115.720704 
L 181.074816 -115.986816 
L 181.340928 -116.252928 
L 181.60704 -116.51904 
L 181.873152 -116.785152 
L 182.139264 -117.051264 
L 182.405376 -117.317376 
L 182.671488 -117.583488 
L 182.9376 -117.8496 
L 183.203712 -118.115712 
L 183.469824 -118.381824 
L 183.735936 -118.647936 
L 184.002048 -118.914048 
L 184.26816 -119.18016 
L 184.534272 -119.446272 
L 184.800384 -119.712384 
L 185.066496 -119.978496 
L 185.332608 -120.244608 
L 185.59872 -120.51072 
L 185.864832 -120.776832 
L 186.130944 -121.042944 
L 186.397056 -121.309056 
L 186.663168 -121.575168 
L 186.92928 -121.84128 
L 187.195392 -122.107392 
L 187.461504 -122.373504 
L 187.727616 -122.639616 
L 187.993728 -122.905728 
L 188.25984 -123.17184 
L 188.525952 -123.437952 
L 188.792064 -123.704064 
L 189.058176 -123.970176 
L 189.324288 -124.236288 
L 189.5904 -124.5024 
L 189.856512 -124.768512 
L 190.122624 -125.034624 
L 190.388736 -125.300736 
L 190.654848 -125.566848 
L 190.92096 -125.83296 
L 191.187072 -126.099072 
L 191.453184 -126.365184 
L 191.719296 -126.631296 
L 191.985408 -126.897408 
L 192.25152 -127.16352 
L 192.517632 -127.429632 
L 192.783744 -127.695744 
L 193.049856 -127.961856 
L 193.315968 -128.227968 
L 193.58208 -128.49408 
L 193.848192 -128.760192 
L 194.114304 -129.026304 
L 194.380416 -129.292416 
L 194.646528 -129.558528 
L 194.91264 -129.82464 
L 195.178752 -130.090752 
L 195.444864 -130.356864 
L 195.710976 -130.622976 
L 195.977088 -130.889088 
L 196.2432 -131.1552 
L 196.509312 -131.421312 
L 196.775424 -131.687424 
L 197.041536 -131.953536 
L 197.307648 -132.219648 
L 197.57376 -132.48576 
L 197.839872 -132.751872 
L 198.105984 -133.017984 
L 198.372096 -133.284096 
L 198.638208 -133.550208 
L 198.90432 -133.81632 
L 199.170432 -134.082432 
L 199.436544 -134.348544 
L 199.702656 -134.614656 
L 199.968768 -134.880768 
L 200.23488 -135.14688 
L 200.500992 -135.412992 
L 200.767104 -135.679104 
L 201.033216 -135.945216 
L 201.299328 -136.211328 
L 201.56544 -136.47744 
L 201.831552 -136.743552 
L 202.097664 -137.009664 
L 202.363776 -137.275776 
L 202.629888 -137.541888 
L 202.896 -137.808 
L 203.162112 -138.074112 
L 203.428224 -138.340224 
L 203.694336 -138.606336 
L 203.960448 -138.872448 
L 204.22656 -139.13856 
L 204.492672 -139.404672 
L 204.758784 -139.670784 
L 205.024896 -139.936896 
L 205.291008 -140.203008 
L 205.55712 -140.46912 
L 205.823232 -140.735232 
L 206.089344 -141.001344 
L 206.355456 -141.267456 
L 206.621568 -141.533568 
L 206.88768 -141.79968 
L 207.153792 -142.065792 
L 207.419904 -142.331904 
L 207.686016 -142.598016 
L 207.952128 -142.864128 
L 208.21824 -143.13024 
L 208.484352 -143.396352 
L 208.750464 -143.662464 
L 209.016576 -143.928576 
L 209.282688 -144.194688 
L 209.5488 -144.4608 
L 209.814912 -144.726912 
L 210.081024 -144.993024 
L 210.347136 -145.259136 
L 210.613248 -145.525248 
L 210.87936 -145.79136 
L 211.145472 -146.057472 
L 211.411584 -146.323584 
L 211.677696 -146.589696 
L 211.943808 -146.855808 
L 212.20992 -147.12192 
L 212.476032 -147.388032 
L 212.742144 -147.654144 
L 213.008256 -147.920256 
L 213.274368 -148.186368 
L 213.54048 -148.45248 
L 213.806592 -148.718592 
L 214.072704 -148.984704 
L 214.338816 -149.250816 
L 214.604928 -149.516928 
L 214.87104 -149.78304 
L 215.137152 -150.049152 
L 215.403264 -150.315264 
L 215.669376 -150.581376 
L 215.935488 -150.847488 
L 216.2016 -151.1136 
L 216.467712 -151.379712 
L 216.733824 -151.645824 
L 216.999936 -151.911936 
L 217.266048 -152.178048 
L 217.53216 -152.44416 
L 217.798272 -152.710272 
L 218.064384 -152.976384 
L 218.330496 -153.242496 
L 218.596608 -153.508608 
L 218.86272 -153.77472 
L 219.128832 -154.040832 
L 219.394944 -154.306944 
L 219.661056 -154.573056 
L 219.927168 -154.839168 
L 220.19328 -155.10528 
L 220.459392 -155.371392 
L 220.725504 -155.637504 
L 220.991616 -155.903616 
L 221.257728 -156.169728 
L 221.52384 -156.43584 
L 221.789952 -156.701952 
L 222.056064 -156.968064 
L 222.322176 -157.234176 
L 222.588288 -157.500288 
L 222.8544 -157.7664 
L 223.120512 -158.032512 
L 223.386624 -158.298624 
L 223.652736 -158.564736 
L 223.918848 -158.830848 
L 224.18496 -159.09696 
L 224.451072 -159.363072 
L 224.717184 -159.629184 
L 224.983296 -159.895296 
L 225.249408 -160.161408 
L 225.51552 -160.42752 
L 225.781632 -160.693632 
L 226.047744 -160.959744 
L 226.313856 -161.225856 
L 226.579968 -161.491968 
L 226.84608 -161.75808 
L 227.112192 -162.024192 
L 227.378304 -162.290304 
L 227.644416 -162.556416 
L 227.910528 -162.822528 
L 228.17664 -163.08864 
L 228.442752 -163.354752 
L 228.708864 -163.620864 
L 228.974976 -163.886976 
L 229.241088 -164.153088 
L 229.5072 -164.4192 
L 229.773312 -164.685312 
L 230.039424 -164.951424 
L 230.305536 -165.217536 
L 230.571648 -165.483648 
L 230.83776 -165.74976 
L 231.103872 -166.015872 
L 231.369984 -166.281984 
L 231.636096 -166.548096 
L 231.902208 -166.814208 
L 232.16832 -167.08032 
L 232.434432 -167.346432 
L 232.700544 -167.612544 
L 232.966656 -167.878656 
L 233.232768 -168.144768 
L 233.49888 -168.41088 
L 233.764992 -168.676992 
L 234.031104 -168.943104 
L 234.297216 -169.209216 
L 234.563328 -169.475328 
L 234.82944 -169.74144 
L 235.095552 -170.007552 
L 235.361664 -170.273664 
L 235.627776 -170.539776 
L 235.893888 -170.805888 
L 236.16 -171.072 
L 236.426112 -171.338112 
L 236.692224 -171.604224 
L 236.958336 -171.870336 
L 237.224448 -172.136448 
L 237.49056 -172.40256 
L 237.756672 -172.668672 
L 238.022784 -172.934784 
L 238.288896 -173.200896 
L 238.555008 -173.467008 
L 238.82112 -173.73312 
L 239.087232 -173.999232 
L 239.353344 -174.265344 
L 239.619456 -174.531456 
L 239.885568 -174.797568 
L 240.15168 -175.06368 
L 240.417792 -175.329792 
L 240.683904 -175.595904 
L 240.950016 -175.862016 
L 241.216128 -176.128128 
L 241.48224 -176.39424 
L 241.748352 -176.660352 
L 242.014464 -176.926464 
L 242.280576 -177.192576 
L 242.546688 -177.458688 
L 242.8128 -177.7248 
L 243.078912 -177.990912 
L 243.345024 -178.257024 
L 243.611136 -178.523136 
L 243.877248 -178.789248 
L 244.14336 -179.05536 
L 244.409472 -179.321472 
L 244.675584 -179.587584 
L 244.941696 -179.853696 
L 245.207808 -180.119808 
L 245.47392 -180.38592 
L 245.740032 -180.652032 
L 246.006144 -180.918144 
L 246.272256 -181.184256 
L 246.538368 -181.450368 
L 246.80448 -181.71648 
L 247.070592 -181.982592 
L 247.336704 -182.248704 
L 247.602816 -182.514816 
L 247.868928 -182.780928 
L 248.13504 -183.04704 
L 248.401152 -183.313152 
L 248.667264 -183.579264 
L 248.933376 -183.845376 
L 249.199488 -184.111488 
L 249.4656 -184.3776 
L 249.731712 -184.643712 
L 249.997824 -184.909824 
L 250.263936 -185.175936 
L 250.530048 -185.442048 
L 250.79616 -185.70816 
L 251.062272 -185.974272 
L 251.328384 -186.240384 
L 251.594496 -186.506496 
L 251.860608 -186.772608 
L 252.12672 -187.03872 
L 252.392832 -187.304832 
L 252.658944 -187.570944 
L 252.925056 -187.837056 
L 253.191168 -188.103168 
L 253.45728 -188.36928 
L 253.723392 -188.635392 
L 253.989504 -188.901504 
L 254.255616 -189.167616 
L 254.521728 -189.433728 
L 254.78784 -189.69984 
L 255.053952 -189.965952 
L 255.320064 -190.232064 
L 255.586176 -190.498176 
L 255.852288 -190.764288 
L 256.1184 -191.0304 
L 256.384512 -191.296512 
L 256.650624 -191.562624 
L 256.916736 -191.828736 
L 257.182848 -192.094848 
L 257.44896 -192.36096 
L 257.715072 -192.627072 
L 257.981184 -192.893184 
L 258.247296 -193.159296 
L 258.513408 -193.425408 
L 258.77952 -193.69152 
L 259.045632 -193.957632 
L 259.311744 -194.223744 
L 259.577856 -194.489856 
L 259.843968 -194.755968 
L 260.11008 -195.02208 
L 260.376192 -195.288192 
L 260.642304 -195.554304 
L 260.908416 -195.820416 
L 261.174528 -196.086528 
L 261.44064 -196.35264 
L 261.706752 -196.618752 
L 261.972864 -196.884864 
L 262.238976 -197.150976 
L 262.505088 -197.417088 
L 262.7712 -197.6832 
L 263.037312 -197.949312 
L 263.303424 -198.215424 
L 263.569536 -198.481536 
L 263.835648 -198.747648 
L 264.10176 -199.01376 
L 264.367872 -199.279872 
L 264.633984 -199.545984 
L 264.900096 -199.812096 
L 265.166208 -200.078208 
L 265.43232 -200.34432 
L 265.698432 -200.610432 
L 265.964544 -200.876544 
L 266.230656 -201.142656 
L 266.496768 -201.408768 
L 266.76288 -201.67488 
L 267.028992 -201.940992 
L 267.295104 -202.207104 
L 267.561216 -202.473216 
L 267.827328 -202.739328 
L 268.09344 -203.00544 
L 268.359552 -203.271552 
L 268.625664 -203.537664 
L 268.891776 -203.803776 
L 269.157888 -204.069888 
L 269.424 -204.336 
L 269.690112 -204.602112 
L 269.956224 -204.868224 
L 270.222336 -205.134336 
L 270.488448 -205.400448 
L 270.75456 -205.66656 
L 271.020672 -205.932672 
L 271.286784 -206.198784 
L 271.552896 -206.464896 
L 271.819008 -206.731008 
L 272.08512 -206.99712 
L 272.351232 -207.263232 
L 272.617344 -207.529344 
L 272.883456 -207.795456 
L 273.149568 -208.061568 
L 273.41568 -208.32768 
L 273.681792 -208.593792 
L 273.947904 -208.859904 
L 274.214016 -209.126016 
L 274.480128 -209.392128 
L 274.74624 -209.65824 
L 275.012352 -209.924352 
L 275.278464 -210.190464 
L 275.544576 -210.456576 
L 275.810688 -210.722688 
L 276.0768 -210.9888 
L 276.342912 -211.254912 
L 276.609024 -211.521024 
L 276.875136 -211.787136 
L 277.141248 -212.053248 
L 277.40736 -212.31936 
L 277.673472 -212.585472 
L 277.939584 -212.851584 
L 278.205696 -213.117696 
L 278.471808 -213.383808 
L 278.73792 -213.64992 
L 279.004032 -213.916032 
L 279.270144 -214.182144 
L 279.536256 -214.448256 
L 279.802368 -214.714368 
L 280.06848 -214.98048 
L 280.334592 -215.246592 
L 280.600704 -215.512704 
L 280.866816 -215.778816 
L 281.132928 -216.044928 
L 281.39904 -216.31104 
L 281.665152 -216.577152 
L 281.931264 -216.843264 
L 282.197376 -217.109376 
L 282.463488 -217.375488 
L 282.7296 -217.6416 
L 282.995712 -217.907712 
L 283.261824 -218.173824 
L 283.527936 -218.439936 
L 283.794048 -218.706048 
L 284.06016 -218.97216 
L 284.326272 -219.238272 
L 284.592384 -219.504384 
L 284.858496 -219.770496 
L 285.124608 -220.036608 
L 285.39072 -220.30272 
L 285.656832 -220.568832 
L 285.922944 -220.834944 
L 286.189056 -221.101056 
L 286.455168 -221.367168 
L 286.72128 -221.63328 
L 286.987392 -221.899392 
L 287.253504 -222.165504 
L 287.519616 -222.431616 
L 287.785728 -222.697728 
L 288.05184 -222.96384 
L 288.317952 -223.229952 
L 288.584064 -223.496064 
L 288.850176 -223.762176 
L 289.116288 -224.028288 
L 289.3824 -224.2944 
L 289.648512 -224.560512 
L 289.914624 -224.826624 
L 290.180736 -225.092736 
L 290.446848 -225.358848 
L 290.71296 -225.62496 
L 290.979072 -225.891072 
L 291.245184 -226.157184 
L 291.511296 -226.423296 
L 291.777408 -226.689408 
L 292.04352 -226.95552 
L 292.309632 -227.221632 
L 292.575744 -227.487744 
L 292.841856 -227.753856 
L 293.107968 -228.019968 
L 293.37408 -228.28608 
L 293.640192 -228.552192 
L 293.906304 -228.818304 
L 294.172416 -229.084416 
L 294.438528 -229.350528 
L 294.70464 -229.61664 
L 294.970752 -229.882752 
L 295.236864 -230.148864 
L 295.502976 -230.414976 
L 295.769088 -230.681088 
L 296.0352 -230.9472 
L 296.301312 -231.213312 
L 296.567424 -231.479424 
L 296.833536 -231.745536 
L 297.099648 -232.011648 
L 297.36576 -232.27776 
L 297.631872 -232.543872 
L 297.897984 -232.809984 
L 298.164096 -233.076096 
L 298.430208 -233.342208 
L 298.69632 -233.60832 
L 298.962432 -233.874432 
L 299.228544 -234.140544 
L 299.494656 -234.406656 
L 299.760768 -234.672768 
L 300.02688 -234.93888 
L 300.292992 -235.204992 
L 300.559104 -235.471104 
L 300.825216 -235.737216 
L 301.091328 -236.003328 
L 301.35744 -236.26944 
L 301.623552 -236.535552 
L 301.889664 -236.801664 
L 302.155776 -237.067776 
L 302.421888 -237.333888 
L 302.688 -237.6 
L 302.954112 -237.866112 
L 303.220224 -238.132224 
L 303.486336 -238.398336 
L 303.752448 -238.664448 
L 304.01856 -238.93056 
L 304.284672 -239.196672 
L 304.550784 -239.462784 
L 304.816896 -239.728896 
L 305.083008 -239.995008 
L 305.34912 -240.26112 
L 305.615232 -240.527232 
L 305.881344 -240.793344 
L 306.147456 -241.059456 
L 306.413568 -241.325568 
L 306.67968 -241.59168 
L 306.945792 -241.857792 
L 307.211904 -242.123904 
L 307.478016 -242.390016 
L 307.744128 -242.656128 
L 308.01024 -242.92224 
L 308.276352 -243.188352 
L 308.542464 -243.454464 
L 308.808576 -243.720576 
L 309.074688 -243.986688 
L 309.3408 -244.2528 
L 309.606912 -244.518912 
L 309.873024 -244.785024 
L 310.139136 -245.051136 
L 310.405248 -245.317248 
L 310.67136 -245.58336 
L 310.937472 -245.849472 
L 311.203584 -246.115584 
L 311.469696 -246.381696 
L 311.735808 -246.647808 
L 312.00192 -246.91392 
L 312.268032 -247.180032 
L 312.534144 -247.446144 
L 312.800256 -247.712256 
L 313.066368 -247.978368 
L 313.33248 -248.24448 
L 313.598592 -248.510592 
L 313.864704 -248.776704 
L 314.130816 -249.042816 
L 314.396928 -249.308928 
L 314.66304 -249.57504 
L 314.929152 -249.841152 
L 315.195264 -250.107264 
L 315.461376 -250.373376 
L 315.727488 -250.639488 
L 315.9936 -250.9056 
L 316.259712 -251.171712 
L 316.525824 -251.437824 
L 316.791936 -251.703936 
L 317.058048 -251.970048 
L 317.32416 -252.23616 
L 317.590272 -252.502272 
L 317.856384 -252.768384 
L 318.122496 -253.034496 
L 318.388608 -253.300608 
L 318.65472 -253.56672 
L 318.920832 -253.832832 
L 319.186944 -254.098944 
L 319.453056 -254.365056 
L 319.719168 -254.631168 
L 319.98528 -254.89728 
L 320.251392 -255.163392 
L 320.517504 -255.429504 
L 320.783616 -255.695616 
L 321.049728 -255.961728 
L 321.31584 -256.22784 
L 321.581952 -256.493952 
L 321.848064 -256.760064 
L 322.114176 -257.026176 
L 322.380288 -257.292288 
L 322.6464 -257.5584 
L 322.912512 -257.824512 
L 323.178624 -258.090624 
L 323.444736 -258.356736 
L 323.710848 -258.622848 
L 323.97696 -258.88896 
L 324.243072 -259.155072 
L 324.509184 -259.421184 
L 324.775296 -259.687296 
L 325.041408 -259.953408 
L 325.30752 -260.21952 
L 325.573632 -260.485632 
L 325.839744 -260.751744 
L 326.105856 -261.017856 
L 326.371968 -261.283968 
L 326.63808 -261.55008 
L 326.904192 -261.816192 
L 327.170304 -262.082304 
L 327.436416 -262.348416 
L 327.702528 -262.614528 
L 327.96864 -262.88064 
L 328.234752 -263.146752 
L 328.500864 -263.412864 
L 328.766976 -263.678976 
L 329.033088 -263.945088 
L 329.2992 -264.2112 
L 329.565312 -264.477312 
L 329.831424 -264.743424 
L 330.097536 -265.009536 
L 330.363648 -265.275648 
L 330.62976 -265.54176 
L 330.895872 -265.807872 
L 331.161984 -266.073984 
L 331.428096 -266.340096 
L 331.694208 -266.606208 
L 331.96032 -266.87232 
L 332.226432 -267.138432 
L 332.492544 -267.404544 
L 332.758656 -267.670656 
L 333.024768 -267.936768 
L 333.29088 -268.20288 
L 333.556992 -268.468992 
L 333.823104 -268.735104 
L 334.089216 -269.001216 
L 334.355328 -269.267328 
L 334.62144 -269.53344 
L 334.887552 -269.799552 
L 335.153664 -270.065664 
L 335.419776 -270.331776 
L 335.685888 -270.597888 
L 335.952 -270.864 
L 336.218112 -271.130112 
L 336.484224 -271.396224 
L 336.750336 -271.662336 
L 337.016448 -271.928448 
L 337.28256 -272.19456 
L 337.548672 -272.460672 
L 337.814784 -272.726784 
L 338.080896 -272.992896 
L 338.347008 -273.259008 
L 338.61312 -273.52512 
L 338.879232 -273.791232 
L 339.145344 -274.057344 
L 339.411456 -274.323456 
L 339.677568 -274.589568 
L 339.94368 -274.85568 
L 340.209792 -275.121792 
L 340.475904 -275.387904 
L 340.742016 -275.654016 
L 341.008128 -275.920128 
L 341.27424 -276.18624 
L 341.540352 -276.452352 
L 341.806464 -276.718464 
L 342.072576 -276.984576 
L 342.338688 -277.250688 
L 342.6048 -277.5168 
L 342.870912 -277.782912 
L 343.137024 -278.049024 
L 343.403136 -278.315136 
L 343.669248 -278.581248 
L 343.93536 -278.84736 
L 344.201472 -279.113472 
L 344.467584 -279.379584 
L 344.733696 -279.645696 
L 344.999808 -279.911808 
L 345.26592 -280.17792 
L 345.532032 -280.444032 
L 345.798144 -280.710144 
L 346.064256 -280.976256 
L 346.330368 -281.242368 
L 346.59648 -281.50848 
L 346.862592 -281.774592 
L 347.128704 -282.040704 
L 347.394816 -282.306816 
L 347.660928 -282.572928 
L 347.92704 -282.83904 
L 348.193152 -283.105152 
L 348.459264 -283.371264 
L 348.725376 -283.637376 
L 348.991488 -283.903488 
L 349.2576 -284.1696 
L 349.523712 -284.435712 
L 349.789824 -284.701824 
L 350.055936 -284.967936 
L 350.322048 -285.234048 
L 350.58816 -285.50016 
L 350.854272 -285.766272 
L 351.120384 -286.032384 
L 351.386496 -286.298496 
L 351.652608 -286.564608 
L 351.91872 -286.83072 
L 352.184832 -287.096832 
L 352.450944 -287.362944 
L 352.717056 -287.629056 
L 352.983168 -287.895168 
L 353.24928 -288.16128 
L 353.515392 -288.427392 
L 353.781504 -288.693504 
L 354.047616 -288.959616 
L 354.313728 -289.225728 
L 354.57984 -289.49184 
L 354.845952 -289.757952 
L 355.112064 -290.024064 
L 355.378176 -290.290176 
L 355.644288 -290.556288 
L 355.9104 -290.8224 
L 356.176512 -291.088512 
L 356.442624 -291.354624 
L 356.708736 -291.620736 
L 356.974848 -291.886848 
L 357.24096 -292.15296 
L 357.507072 -292.419072 
L 357.773184 -292.685184 
L 358.039296 -292.951296 
L 358.305408 -293.217408 
L 358.57152 -293.48352 
L 358.837632 -293.749632 
L 359.103744 -294.015744 
L 359.369856 -294.281856 
L 359.635968 -294.547968 
L 359.90208 -294.81408 
L 360.168192 -295.080192 
L 360.434304 -295.346304 
L 360.700416 -295.612416 
L 360.966528 -295.878528 
L 361.23264 -296.14464 
L 361.498752 -296.410752 
L 361.764864 -296.676864 
L 362.030976 -296.942976 
L 362.297088 -297.209088 
L 362.5632 -297.4752 
L 362.829312 -297.741312 
L 363.095424 -298.007424 
L 363.361536 -298.273536 
L 363.627648 -298.539648 
L 363.89376 -298.80576 
L 364.159872 -299.071872 
L 364.425984 -299.337984 
L 364.692096 -299.604096 
L 364.958208 -299.870208 
L 365.22432 -300.13632 
L 365.490432 -300.402432 
L 365.756544 -300.668544 
L 366.022656 -300.934656 
L 366.288768 -301.200768 
L 366.55488 -301.46688 
L 366.820992 -301.732992 
L 367.087104 -301.999104 
L 367.353216 -302.265216 
L 367.619328 -302.531328 
L 367.88544 -302.79744 
L 368.151552 -303.063552 
L 368.417664 -303.329664 
L 368.683776 -303.595776 
L 368.949888 -303.861888 
L 369.216 -304.128 
L 369.216 -304.128 
L 369.216 -304.128 
L 368.949888 -295.285968 
L 368.683776 -287.48467 
L 368.417664 -280.21981 
L 368.151552 -274.739015 
L 367.88544 -269.280147 
L 367.619328 -264.135173 
L 367.353216 -259.381356 
L 367.087104 -255.37795 
L 366.820992 -251.548987 
L 366.55488 -248.280679 
L 366.288768 -245.053391 
L 366.022656 -241.831881 
L 365.756544 -238.813189 
L 365.490432 -236.071435 
L 365.22432 -233.498182 
L 364.958208 -231.201917 
L 364.692096 -229.040366 
L 364.425984 -226.950317 
L 364.159872 -224.863874 
L 363.89376 -222.781646 
L 363.627648 -220.773557 
L 363.361536 -218.785161 
L 363.095424 -216.79947 
L 362.829312 -214.841918 
L 362.5632 -212.937481 
L 362.297088 -211.035625 
L 362.030976 -209.152316 
L 361.764864 -207.287329 
L 361.498752 -205.481741 
L 361.23264 -203.695119 
L 360.966528 -202.006478 
L 360.700416 -200.398994 
L 360.434304 -198.939317 
L 360.168192 -197.559108 
L 359.90208 -196.211354 
L 359.635968 -194.870278 
L 359.369856 -193.545822 
L 359.103744 -192.244272 
L 358.837632 -190.949026 
L 358.57152 -189.677988 
L 358.305408 -188.440054 
L 358.039296 -187.208544 
L 357.773184 -185.986302 
L 357.507072 -184.766292 
L 357.24096 -183.564315 
L 356.974848 -182.382493 
L 356.708736 -181.205789 
L 356.442624 -180.078989 
L 356.176512 -178.975456 
L 355.9104 -177.897132 
L 355.644288 -176.819658 
L 355.378176 -175.745714 
L 355.112064 -174.68523 
L 354.845952 -173.625668 
L 354.57984 -172.594311 
L 354.313728 -171.574843 
L 354.047616 -170.564363 
L 353.781504 -169.556307 
L 353.515392 -168.550732 
L 353.24928 -167.545167 
L 352.983168 -166.552593 
L 352.717056 -165.568051 
L 352.450944 -164.596854 
L 352.184832 -163.632106 
L 351.91872 -162.671542 
L 351.652608 -161.735428 
L 351.386496 -160.832384 
L 351.120384 -159.982889 
L 350.854272 -159.139806 
L 350.58816 -158.308333 
L 350.322048 -157.489378 
L 350.055936 -156.672761 
L 349.789824 -155.862593 
L 349.523712 -155.06739 
L 349.2576 -154.27744 
L 348.991488 -153.490418 
L 348.725376 -152.717075 
L 348.459264 -151.956185 
L 348.193152 -151.199696 
L 347.92704 -150.44553 
L 347.660928 -149.693923 
L 347.394816 -148.944955 
L 347.128704 -148.19838 
L 346.862592 -147.455711 
L 346.59648 -146.727197 
L 346.330368 -146.00107 
L 346.064256 -145.284251 
L 345.798144 -144.567661 
L 345.532032 -143.859657 
L 345.26592 -143.151818 
L 344.999808 -142.450515 
L 344.733696 -141.749973 
L 344.467584 -141.057986 
L 344.201472 -140.367311 
L 343.93536 -139.680434 
L 343.669248 -138.995008 
L 343.403136 -138.310107 
L 343.137024 -137.627103 
L 342.870912 -136.952104 
L 342.6048 -136.289077 
L 342.338688 -135.642354 
L 342.072576 -135.007574 
L 341.806464 -134.373344 
L 341.540352 -133.743853 
L 341.27424 -133.114761 
L 341.008128 -132.490038 
L 340.742016 -131.873599 
L 340.475904 -131.264775 
L 340.209792 -130.661887 
L 339.94368 -130.072195 
L 339.677568 -129.483685 
L 339.411456 -128.906914 
L 339.145344 -128.330576 
L 338.879232 -127.767332 
L 338.61312 -127.206692 
L 338.347008 -126.653835 
L 338.080896 -126.10946 
L 337.814784 -125.566984 
L 337.548672 -125.024572 
L 337.28256 -124.485138 
L 337.016448 -123.954627 
L 336.750336 -123.42424 
L 336.484224 -122.894039 
L 336.218112 -122.367882 
L 335.952 -121.84501 
L 335.685888 -121.324271 
L 335.419776 -120.808117 
L 335.153664 -120.292754 
L 334.887552 -119.789112 
L 334.62144 -119.289493 
L 334.355328 -118.790751 
L 334.089216 -118.294083 
L 333.823104 -117.801852 
L 333.556992 -117.319883 
L 333.29088 -116.842205 
L 333.024768 -116.36893 
L 332.758656 -115.901663 
L 332.492544 -115.43722 
L 332.226432 -114.975528 
L 331.96032 -114.51802 
L 331.694208 -114.071195 
L 331.428096 -113.626126 
L 331.161984 -113.182312 
L 330.895872 -112.741597 
L 330.62976 -112.303137 
L 330.363648 -111.866138 
L 330.097536 -111.432648 
L 329.831424 -111.002377 
L 329.565312 -110.57309 
L 329.2992 -110.144456 
L 329.033088 -109.744774 
L 328.766976 -109.347269 
L 328.500864 -108.955589 
L 328.234752 -108.564318 
L 327.96864 -108.175437 
L 327.702528 -107.789713 
L 327.436416 -107.408886 
L 327.170304 -107.032628 
L 326.904192 -106.656766 
L 326.63808 -106.28229 
L 326.371968 -105.908235 
L 326.105856 -105.535975 
L 325.839744 -105.165649 
L 325.573632 -104.799126 
L 325.30752 -104.435519 
L 325.041408 -104.078423 
L 324.775296 -103.721354 
L 324.509184 -103.364476 
L 324.243072 -103.010219 
L 323.97696 -102.656965 
L 323.710848 -102.304276 
L 323.444736 -101.951811 
L 323.178624 -101.600986 
L 322.912512 -101.253476 
L 322.6464 -100.913912 
L 322.380288 -100.583326 
L 322.114176 -100.254946 
L 321.848064 -99.927482 
L 321.581952 -99.602842 
L 321.31584 -99.279308 
L 321.049728 -98.955829 
L 320.783616 -98.634459 
L 320.517504 -98.314661 
L 320.251392 -97.995871 
L 319.98528 -97.678461 
L 319.719168 -97.362984 
L 319.453056 -97.048426 
L 319.186944 -96.741665 
L 318.920832 -96.437751 
L 318.65472 -96.135424 
L 318.388608 -95.833579 
L 318.122496 -95.532172 
L 317.856384 -95.234389 
L 317.590272 -94.936906 
L 317.32416 -94.644255 
L 317.058048 -94.351859 
L 316.791936 -94.060153 
L 316.525824 -93.770901 
L 316.259712 -93.482549 
L 315.9936 -93.195028 
L 315.727488 -92.907768 
L 315.461376 -92.623864 
L 315.195264 -92.347485 
L 314.929152 -92.071589 
L 314.66304 -91.799167 
L 314.396928 -91.532752 
L 314.130816 -91.267118 
L 313.864704 -91.001549 
L 313.598592 -90.737016 
L 313.33248 -90.472791 
L 313.066368 -90.208635 
L 312.800256 -89.944635 
L 312.534144 -89.684199 
L 312.268032 -89.427309 
L 312.00192 -89.17128 
L 311.735808 -88.916257 
L 311.469696 -88.661424 
L 311.203584 -88.410257 
L 310.937472 -88.159678 
L 310.67136 -87.910039 
L 310.405248 -87.663881 
L 310.139136 -87.424741 
L 309.873024 -87.187375 
L 309.606912 -86.951429 
L 309.3408 -86.715541 
L 309.074688 -86.48303 
L 308.808576 -86.250773 
L 308.542464 -86.019217 
L 308.276352 -85.788813 
L 308.01024 -85.559388 
L 307.744128 -85.336001 
L 307.478016 -85.112966 
L 307.211904 -84.891101 
L 306.945792 -84.669906 
L 306.67968 -84.44997 
L 306.413568 -84.231834 
L 306.147456 -84.014118 
L 305.881344 -83.796462 
L 305.615232 -83.581092 
L 305.34912 -83.366084 
L 305.083008 -83.151749 
L 304.816896 -82.938406 
L 304.550784 -82.726134 
L 304.284672 -82.514013 
L 304.01856 -82.301901 
L 303.752448 -82.090422 
L 303.486336 -81.879848 
L 303.220224 -81.674946 
L 302.954112 -81.470318 
L 302.688 -81.265854 
L 302.421888 -81.061957 
L 302.155776 -80.858682 
L 301.889664 -80.65603 
L 301.623552 -80.453444 
L 301.35744 -80.251006 
L 301.091328 -80.048789 
L 300.825216 -79.846814 
L 300.559104 -79.645118 
L 300.292992 -79.443559 
L 300.02688 -79.242994 
L 299.760768 -79.042752 
L 299.494656 -78.84405 
L 299.228544 -78.647321 
L 298.962432 -78.451293 
L 298.69632 -78.257035 
L 298.430208 -78.062941 
L 298.164096 -77.869631 
L 297.897984 -77.677245 
L 297.631872 -77.485811 
L 297.36576 -77.295084 
L 297.099648 -77.106608 
L 296.833536 -76.918428 
L 296.567424 -76.731815 
L 296.301312 -76.54556 
L 296.0352 -76.359655 
L 295.769088 -76.174519 
L 295.502976 -75.989399 
L 295.236864 -75.806176 
L 294.970752 -75.623199 
L 294.70464 -75.441586 
L 294.438528 -75.26158 
L 294.172416 -75.081688 
L 293.906304 -74.902165 
L 293.640192 -74.722762 
L 293.37408 -74.544334 
L 293.107968 -74.366106 
L 292.841856 -74.187915 
L 292.575744 -74.012124 
L 292.309632 -73.836593 
L 292.04352 -73.661113 
L 291.777408 -73.486231 
L 291.511296 -73.311797 
L 291.245184 -73.137937 
L 290.979072 -72.964569 
L 290.71296 -72.791872 
L 290.446848 -72.620462 
L 290.180736 -72.449131 
L 289.914624 -72.279187 
L 289.648512 -72.109441 
L 289.3824 -71.939824 
L 289.116288 -71.77098 
L 288.850176 -71.604637 
L 288.584064 -71.438377 
L 288.317952 -71.273494 
L 288.05184 -71.108785 
L 287.785728 -70.944949 
L 287.519616 -70.782018 
L 287.253504 -70.619835 
L 286.987392 -70.458069 
L 286.72128 -70.297899 
L 286.455168 -70.138559 
L 286.189056 -69.981975 
L 285.922944 -69.827138 
L 285.656832 -69.672457 
L 285.39072 -69.51816 
L 285.124608 -69.364961 
L 284.858496 -69.212067 
L 284.592384 -69.059913 
L 284.326272 -68.907759 
L 284.06016 -68.755905 
L 283.794048 -68.604127 
L 283.527936 -68.453131 
L 283.261824 -68.303017 
L 282.995712 -68.156921 
L 282.7296 -68.01099 
L 282.463488 -67.865297 
L 282.197376 -67.719798 
L 281.931264 -67.574397 
L 281.665152 -67.429444 
L 281.39904 -67.284522 
L 281.132928 -67.139695 
L 280.866816 -66.996147 
L 280.600704 -66.853137 
L 280.334592 -66.710486 
L 280.06848 -66.568095 
L 279.802368 -66.426187 
L 279.536256 -66.284612 
L 279.270144 -66.143128 
L 279.004032 -66.001803 
L 278.73792 -65.860749 
L 278.471808 -65.720817 
L 278.205696 -65.58201 
L 277.939584 -65.444636 
L 277.673472 -65.307762 
L 277.40736 -65.171505 
L 277.141248 -65.035559 
L 276.875136 -64.899727 
L 276.609024 -64.7641 
L 276.342912 -64.629025 
L 276.0768 -64.494696 
L 275.810688 -64.361279 
L 275.544576 -64.228317 
L 275.278464 -64.095938 
L 275.012352 -63.964354 
L 274.74624 -63.832958 
L 274.480128 -63.702194 
L 274.214016 -63.573285 
L 273.947904 -63.446528 
L 273.681792 -63.320228 
L 273.41568 -63.194379 
L 273.149568 -63.069074 
L 272.883456 -62.9446 
L 272.617344 -62.821348 
L 272.351232 -62.698299 
L 272.08512 -62.575267 
L 271.819008 -62.453684 
L 271.552896 -62.333273 
L 271.286784 -62.213296 
L 271.020672 -62.094424 
L 270.75456 -61.975607 
L 270.488448 -61.856845 
L 270.222336 -61.739314 
L 269.956224 -61.621786 
L 269.690112 -61.505288 
L 269.424 -61.388993 
L 269.157888 -61.273688 
L 268.891776 -61.159113 
L 268.625664 -61.044949 
L 268.359552 -60.930813 
L 268.09344 -60.81734 
L 267.827328 -60.704081 
L 267.561216 -60.591014 
L 267.295104 -60.478369 
L 267.028992 -60.365727 
L 266.76288 -60.253891 
L 266.496768 -60.142056 
L 266.230656 -60.031482 
L 265.964544 -59.921235 
L 265.698432 -59.811787 
L 265.43232 -59.702572 
L 265.166208 -59.593797 
L 264.900096 -59.485205 
L 264.633984 -59.376675 
L 264.367872 -59.268328 
L 264.10176 -59.160415 
L 263.835648 -59.052832 
L 263.569536 -58.94525 
L 263.303424 -58.837965 
L 263.037312 -58.730829 
L 262.7712 -58.624574 
L 262.505088 -58.518406 
L 262.238976 -58.412716 
L 261.972864 -58.307841 
L 261.706752 -58.203826 
L 261.44064 -58.10111 
L 261.174528 -57.998398 
L 260.908416 -57.895881 
L 260.642304 -57.793396 
L 260.376192 -57.691027 
L 260.11008 -57.589106 
L 259.843968 -57.488347 
L 259.577856 -57.389467 
L 259.311744 -57.291044 
L 259.045632 -57.193625 
L 258.77952 -57.096301 
L 258.513408 -56.999034 
L 258.247296 -56.901935 
L 257.981184 -56.805095 
L 257.715072 -56.709194 
L 257.44896 -56.613792 
L 257.182848 -56.519083 
L 256.916736 -56.424612 
L 256.650624 -56.330284 
L 256.384512 -56.236445 
L 256.1184 -56.143462 
L 255.852288 -56.05048 
L 255.586176 -55.95752 
L 255.320064 -55.864724 
L 255.053952 -55.77239 
L 254.78784 -55.680127 
L 254.521728 -55.588262 
L 254.255616 -55.49655 
L 253.989504 -55.405527 
L 253.723392 -55.314879 
L 253.45728 -55.224531 
L 253.191168 -55.134437 
L 252.925056 -55.044344 
L 252.658944 -54.954259 
L 252.392832 -54.864562 
L 252.12672 -54.774883 
L 251.860608 -54.686312 
L 251.594496 -54.597908 
L 251.328384 -54.509836 
L 251.062272 -54.422089 
L 250.79616 -54.334779 
L 250.530048 -54.24757 
L 250.263936 -54.16052 
L 249.997824 -54.073567 
L 249.731712 -53.986775 
L 249.4656 -53.900422 
L 249.199488 -53.814865 
L 248.933376 -53.729874 
L 248.667264 -53.645127 
L 248.401152 -53.560417 
L 248.13504 -53.476169 
L 247.868928 -53.392025 
L 247.602816 -53.308082 
L 247.336704 -53.225263 
L 247.070592 -53.143015 
L 246.80448 -53.06131 
L 246.538368 -52.979655 
L 246.272256 -52.898255 
L 246.006144 -52.817347 
L 245.740032 -52.736785 
L 245.47392 -52.656344 
L 245.207808 -52.576203 
L 244.941696 -52.496177 
L 244.675584 -52.416495 
L 244.409472 -52.337278 
L 244.14336 -52.258112 
L 243.877248 -52.179069 
L 243.611136 -52.101514 
L 243.345024 -52.024836 
L 243.078912 -51.948218 
L 242.8128 -51.871681 
L 242.546688 -51.796022 
L 242.280576 -51.720924 
L 242.014464 -51.646754 
L 241.748352 -51.572711 
L 241.48224 -51.498821 
L 241.216128 -51.425985 
L 240.950016 -51.353715 
L 240.683904 -51.281651 
L 240.417792 -51.210153 
L 240.15168 -51.139353 
L 239.885568 -51.069353 
L 239.619456 -50.999471 
L 239.353344 -50.929713 
L 239.087232 -50.86035 
L 238.82112 -50.791343 
L 238.555008 -50.722803 
L 238.288896 -50.654295 
L 238.022784 -50.585904 
L 237.756672 -50.517681 
L 237.49056 -50.449625 
L 237.224448 -50.38194 
L 236.958336 -50.314472 
L 236.692224 -50.24771 
L 236.426112 -50.181072 
L 236.16 -50.114607 
L 235.893888 -50.048465 
L 235.627776 -49.982573 
L 235.361664 -49.916948 
L 235.095552 -49.851579 
L 234.82944 -49.786302 
L 234.563328 -49.721174 
L 234.297216 -49.656151 
L 234.031104 -49.591683 
L 233.764992 -49.527399 
L 233.49888 -49.463248 
L 233.232768 -49.399111 
L 232.966656 -49.335037 
L 232.700544 -49.271016 
L 232.434432 -49.207151 
L 232.16832 -49.143336 
L 231.902208 -49.079637 
L 231.636096 -49.016252 
L 231.369984 -48.952928 
L 231.103872 -48.889667 
L 230.83776 -48.826745 
L 230.571648 -48.764123 
L 230.305536 -48.70155 
L 230.039424 -48.639519 
L 229.773312 -48.577533 
L 229.5072 -48.515663 
L 229.241088 -48.454163 
L 228.974976 -48.39287 
L 228.708864 -48.331607 
L 228.442752 -48.270779 
L 228.17664 -48.210014 
L 227.910528 -48.149295 
L 227.644416 -48.088579 
L 227.378304 -48.02792 
L 227.112192 -47.969257 
L 226.84608 -47.911094 
L 226.579968 -47.853728 
L 226.313856 -47.796387 
L 226.047744 -47.739121 
L 225.781632 -47.681935 
L 225.51552 -47.624771 
L 225.249408 -47.567674 
L 224.983296 -47.510946 
L 224.717184 -47.454249 
L 224.451072 -47.398312 
L 224.18496 -47.342652 
L 223.918848 -47.287149 
L 223.652736 -47.231966 
L 223.386624 -47.177111 
L 223.120512 -47.122366 
L 222.8544 -47.067762 
L 222.588288 -47.013335 
L 222.322176 -46.959374 
L 222.056064 -46.905471 
L 221.789952 -46.851684 
L 221.52384 -46.79833 
L 221.257728 -46.745547 
L 220.991616 -46.693294 
L 220.725504 -46.641506 
L 220.459392 -46.590373 
L 220.19328 -46.539669 
L 219.927168 -46.489011 
L 219.661056 -46.438514 
L 219.394944 -46.388295 
L 219.128832 -46.33816 
L 218.86272 -46.288099 
L 218.596608 -46.238663 
L 218.330496 -46.189443 
L 218.064384 -46.141419 
L 217.798272 -46.093463 
L 217.53216 -46.04573 
L 217.266048 -45.99886 
L 216.999936 -45.952291 
L 216.733824 -45.905892 
L 216.467712 -45.860103 
L 216.2016 -45.814326 
L 215.935488 -45.768907 
L 215.669376 -45.72358 
L 215.403264 -45.678328 
L 215.137152 -45.63311 
L 214.87104 -45.587997 
L 214.604928 -45.543002 
L 214.338816 -45.498372 
L 214.072704 -45.454401 
L 213.806592 -45.41128 
L 213.54048 -45.368331 
L 213.274368 -45.325771 
L 213.008256 -45.283213 
L 212.742144 -45.240675 
L 212.476032 -45.198331 
L 212.20992 -45.156069 
L 211.943808 -45.113901 
L 211.677696 -45.072214 
L 211.411584 -45.030546 
L 211.145472 -44.989164 
L 210.87936 -44.94784 
L 210.613248 -44.906674 
L 210.347136 -44.86559 
L 210.081024 -44.824909 
L 209.814912 -44.78425 
L 209.5488 -44.74379 
L 209.282688 -44.703425 
L 209.016576 -44.663135 
L 208.750464 -44.623081 
L 208.484352 -44.583435 
L 208.21824 -44.54379 
L 207.952128 -44.50423 
L 207.686016 -44.465076 
L 207.419904 -44.426012 
L 207.153792 -44.387079 
L 206.88768 -44.348172 
L 206.621568 -44.309294 
L 206.355456 -44.270459 
L 206.089344 -44.231663 
L 205.823232 -44.192924 
L 205.55712 -44.154551 
L 205.291008 -44.11626 
L 205.024896 -44.078021 
L 204.758784 -44.039973 
L 204.492672 -44.001928 
L 204.22656 -43.963925 
L 203.960448 -43.926425 
L 203.694336 -43.88893 
L 203.428224 -43.851493 
L 203.162112 -43.814243 
L 202.896 -43.777259 
L 202.629888 -43.740637 
L 202.363776 -43.704651 
L 202.097664 -43.668752 
L 201.831552 -43.632859 
L 201.56544 -43.597005 
L 201.299328 -43.561377 
L 201.033216 -43.526008 
L 200.767104 -43.49099 
L 200.500992 -43.456795 
L 200.23488 -43.422659 
L 199.968768 -43.388538 
L 199.702656 -43.354451 
L 199.436544 -43.320437 
L 199.170432 -43.286434 
L 198.90432 -43.252683 
L 198.638208 -43.21894 
L 198.372096 -43.185279 
L 198.105984 -43.151667 
L 197.839872 -43.118109 
L 197.57376 -43.084676 
L 197.307648 -43.051272 
L 197.041536 -43.018017 
L 196.775424 -42.984778 
L 196.509312 -42.952034 
L 196.2432 -42.919304 
L 195.977088 -42.886638 
L 195.710976 -42.854133 
L 195.444864 -42.821704 
L 195.178752 -42.789577 
L 194.91264 -42.757543 
L 194.646528 -42.725563 
L 194.380416 -42.693778 
L 194.114304 -42.662049 
L 193.848192 -42.630516 
L 193.58208 -42.599104 
L 193.315968 -42.567932 
L 193.049856 -42.536844 
L 192.783744 -42.505763 
L 192.517632 -42.474842 
L 192.25152 -42.444429 
L 191.985408 -42.414262 
L 191.719296 -42.384309 
L 191.453184 -42.354361 
L 191.187072 -42.324728 
L 190.92096 -42.295097 
L 190.654848 -42.265531 
L 190.388736 -42.236021 
L 190.122624 -42.20656 
L 189.856512 -42.177314 
L 189.5904 -42.148298 
L 189.324288 -42.119379 
L 189.058176 -42.09071 
L 188.792064 -42.06207 
L 188.525952 -42.033437 
L 188.25984 -42.004909 
L 187.993728 -41.976502 
L 187.727616 -41.948156 
L 187.461504 -41.919889 
L 187.195392 -41.891905 
L 186.92928 -41.86395 
L 186.663168 -41.836016 
L 186.397056 -41.808149 
L 186.130944 -41.780325 
L 185.864832 -41.753124 
L 185.59872 -41.726222 
L 185.332608 -41.699552 
L 185.066496 -41.673061 
L 184.800384 -41.646751 
L 184.534272 -41.620723 
L 184.26816 -41.594775 
L 184.002048 -41.569196 
L 183.735936 -41.543773 
L 183.469824 -41.518497 
L 183.203712 -41.493297 
L 182.9376 -41.468203 
L 182.671488 -41.443214 
L 182.405376 -41.418268 
L 182.139264 -41.393366 
L 181.873152 -41.368516 
L 181.60704 -41.344077 
L 181.340928 -41.319732 
L 181.074816 -41.295401 
L 180.808704 -41.27113 
L 180.542592 -41.247055 
L 180.27648 -41.222992 
L 180.010368 -41.199127 
L 179.744256 -41.175308 
L 179.478144 -41.151514 
L 179.212032 -41.127728 
L 178.94592 -41.104143 
L 178.679808 -41.080653 
L 178.413696 -41.057429 
L 178.147584 -41.034232 
L 177.881472 -41.011519 
L 177.61536 -40.988841 
L 177.349248 -40.966258 
L 177.083136 -40.94375 
L 176.817024 -40.921256 
L 176.550912 -40.898881 
L 176.2848 -40.87666 
L 176.018688 -40.854663 
L 175.752576 -40.832673 
L 175.486464 -40.810692 
L 175.220352 -40.788931 
L 174.95424 -40.767175 
L 174.688128 -40.745557 
L 174.422016 -40.723948 
L 174.155904 -40.702346 
L 173.889792 -40.680754 
L 173.62368 -40.659286 
L 173.357568 -40.63802 
L 173.091456 -40.616813 
L 172.825344 -40.595778 
L 172.559232 -40.574762 
L 172.29312 -40.554103 
L 172.027008 -40.533515 
L 171.760896 -40.512949 
L 171.494784 -40.492446 
L 171.228672 -40.472027 
L 170.96256 -40.451627 
L 170.696448 -40.43128 
L 170.430336 -40.411039 
L 170.164224 -40.390828 
L 169.898112 -40.370666 
L 169.632 -40.350545 
L 169.365888 -40.330593 
L 169.099776 -40.310752 
L 168.833664 -40.290959 
L 168.567552 -40.271323 
L 168.30144 -40.251947 
L 168.035328 -40.232603 
L 167.769216 -40.213346 
L 167.503104 -40.194154 
L 167.236992 -40.174985 
L 166.97088 -40.155818 
L 166.704768 -40.137116 
L 166.438656 -40.118573 
L 166.172544 -40.100101 
L 165.906432 -40.081926 
L 165.64032 -40.063874 
L 165.374208 -40.046 
L 165.108096 -40.028207 
L 164.841984 -40.010621 
L 164.575872 -39.993129 
L 164.30976 -39.975832 
L 164.043648 -39.958582 
L 163.777536 -39.941494 
L 163.511424 -39.924639 
L 163.245312 -39.90782 
L 162.9792 -39.89101 
L 162.713088 -39.874204 
L 162.446976 -39.857422 
L 162.180864 -39.840731 
L 161.914752 -39.824213 
L 161.64864 -39.807701 
L 161.382528 -39.791252 
L 161.116416 -39.774825 
L 160.850304 -39.758411 
L 160.584192 -39.7421 
L 160.31808 -39.725864 
L 160.051968 -39.709651 
L 159.785856 -39.693681 
L 159.519744 -39.677873 
L 159.253632 -39.662075 
L 158.98752 -39.646348 
L 158.721408 -39.63073 
L 158.455296 -39.615167 
L 158.189184 -39.599684 
L 157.923072 -39.58426 
L 157.65696 -39.568969 
L 157.390848 -39.553993 
L 157.124736 -39.539063 
L 156.858624 -39.524137 
L 156.592512 -39.509255 
L 156.3264 -39.494406 
L 156.060288 -39.479622 
L 155.794176 -39.464878 
L 155.528064 -39.450145 
L 155.261952 -39.435464 
L 154.99584 -39.420864 
L 154.729728 -39.406316 
L 154.463616 -39.391841 
L 154.197504 -39.377427 
L 153.931392 -39.363052 
L 153.66528 -39.348857 
L 153.399168 -39.334733 
L 153.133056 -39.320693 
L 152.866944 -39.306666 
L 152.600832 -39.292721 
L 152.33472 -39.278874 
L 152.068608 -39.265092 
L 151.802496 -39.251428 
L 151.536384 -39.237809 
L 151.270272 -39.224235 
L 151.00416 -39.210746 
L 150.738048 -39.197281 
L 150.471936 -39.183827 
L 150.205824 -39.170468 
L 149.939712 -39.157111 
L 149.6736 -39.143788 
L 149.407488 -39.13052 
L 149.141376 -39.117317 
L 148.875264 -39.104156 
L 148.609152 -39.091007 
L 148.34304 -39.077887 
L 148.076928 -39.064922 
L 147.810816 -39.05216 
L 147.544704 -39.039401 
L 147.278592 -39.026692 
L 147.01248 -39.01416 
L 146.746368 -39.001826 
L 146.480256 -38.989554 
L 146.214144 -38.977292 
L 145.948032 -38.965219 
L 145.68192 -38.953322 
L 145.415808 -38.94149 
L 145.149696 -38.929721 
L 144.883584 -38.917984 
L 144.617472 -38.906315 
L 144.35136 -38.894738 
L 144.085248 -38.883201 
L 143.819136 -38.871743 
L 143.553024 -38.860366 
L 143.286912 -38.849106 
L 143.0208 -38.837849 
L 142.754688 -38.826626 
L 142.488576 -38.815734 
L 142.222464 -38.805072 
L 141.956352 -38.794487 
L 141.69024 -38.783998 
L 141.424128 -38.773518 
L 141.158016 -38.763099 
L 140.891904 -38.752687 
L 140.625792 -38.742343 
L 140.35968 -38.732013 
L 140.093568 -38.72191 
L 139.827456 -38.711824 
L 139.561344 -38.701832 
L 139.295232 -38.691892 
L 139.02912 -38.68205 
L 138.763008 -38.672312 
L 138.496896 -38.662698 
L 138.230784 -38.653115 
L 137.964672 -38.643625 
L 137.69856 -38.634367 
L 137.432448 -38.625168 
L 137.166336 -38.616078 
L 136.900224 -38.607022 
L 136.634112 -38.597994 
L 136.368 -38.588981 
L 136.101888 -38.580061 
L 135.835776 -38.571148 
L 135.569664 -38.562341 
L 135.303552 -38.553632 
L 135.03744 -38.544949 
L 134.771328 -38.536271 
L 134.505216 -38.527638 
L 134.239104 -38.519112 
L 133.972992 -38.510643 
L 133.70688 -38.50221 
L 133.440768 -38.493831 
L 133.174656 -38.485699 
L 132.908544 -38.477942 
L 132.642432 -38.470204 
L 132.37632 -38.462479 
L 132.110208 -38.454813 
L 131.844096 -38.447167 
L 131.577984 -38.43959 
L 131.311872 -38.432027 
L 131.04576 -38.424476 
L 130.779648 -38.41699 
L 130.513536 -38.409657 
L 130.247424 -38.402379 
L 129.981312 -38.395167 
L 129.7152 -38.388036 
L 129.449088 -38.381004 
L 129.182976 -38.373985 
L 128.916864 -38.367039 
L 128.650752 -38.360205 
L 128.38464 -38.353504 
L 128.118528 -38.346853 
L 127.852416 -38.340243 
L 127.586304 -38.333645 
L 127.320192 -38.327103 
L 127.05408 -38.320744 
L 126.787968 -38.314526 
L 126.521856 -38.308338 
L 126.255744 -38.302153 
L 125.989632 -38.295994 
L 125.72352 -38.289882 
L 125.457408 -38.283967 
L 125.191296 -38.278143 
L 124.925184 -38.272323 
L 124.659072 -38.266592 
L 124.39296 -38.260863 
L 124.126848 -38.255134 
L 123.860736 -38.24967 
L 123.594624 -38.244252 
L 123.328512 -38.23885 
L 123.0624 -38.233531 
L 122.796288 -38.228244 
L 122.530176 -38.222986 
L 122.264064 -38.217737 
L 121.997952 -38.2125 
L 121.73184 -38.207471 
L 121.465728 -38.202534 
L 121.199616 -38.197602 
L 120.933504 -38.192713 
L 120.667392 -38.187905 
L 120.40128 -38.183113 
L 120.135168 -38.178348 
L 119.869056 -38.173659 
L 119.602944 -38.169 
L 119.336832 -38.164346 
L 119.07072 -38.15973 
L 118.804608 -38.155326 
L 118.538496 -38.150998 
L 118.272384 -38.146865 
L 118.006272 -38.142836 
L 117.74016 -38.138828 
L 117.474048 -38.134875 
L 117.207936 -38.130988 
L 116.941824 -38.127204 
L 116.675712 -38.123496 
L 116.4096 -38.119906 
L 116.143488 -38.116411 
L 115.877376 -38.112945 
L 115.611264 -38.109489 
L 115.345152 -38.106139 
L 115.07904 -38.102823 
L 114.812928 -38.099603 
L 114.546816 -38.096421 
L 114.280704 -38.093257 
L 114.014592 -38.090359 
L 113.74848 -38.087462 
L 113.482368 -38.084595 
L 113.216256 -38.081734 
L 112.950144 -38.078921 
L 112.684032 -38.07611 
L 112.41792 -38.073342 
L 112.151808 -38.070612 
L 111.885696 -38.068042 
L 111.619584 -38.065525 
L 111.353472 -38.063066 
L 111.08736 -38.060662 
L 110.821248 -38.05833 
L 110.555136 -38.056028 
L 110.289024 -38.053728 
L 110.022912 -38.051453 
L 109.7568 -38.049235 
L 109.490688 -38.047022 
L 109.224576 -38.044814 
L 108.958464 -38.042619 
L 108.692352 -38.040491 
L 108.42624 -38.038417 
L 108.160128 -38.036382 
L 107.894016 -38.034596 
L 107.627904 -38.032812 
L 107.361792 -38.031118 
L 107.09568 -38.029522 
L 106.829568 -38.027989 
L 106.563456 -38.026529 
L 106.297344 -38.025076 
L 106.031232 -38.023683 
L 105.76512 -38.022299 
L 105.499008 -38.02125 
L 105.232896 -38.020259 
L 104.966784 -38.019385 
L 104.700672 -38.01853 
L 104.43456 -38.01797 
L 104.168448 -38.017413 
L 103.902336 -38.016902 
L 103.636224 -38.016475 
L 103.370112 -38.016134 
z
" id="mb666bf821f" style="stroke:#ff0000;stroke-opacity:0.2;"/>
    </defs>
    <g clip-path="url(#pba433ba2c9)">
     <use style="fill:#ff0000;fill-opacity:0.2;stroke:#ff0000;stroke-opacity:0.2;" x="0" xlink:href="#mb666bf821f" y="345.6"/>
    </g>
   </g>
   <g id="matplotlib.axis_1">
    <g id="xtick_1">
     <g id="line2d_1">
      <defs>
       <path d="M 0 0 
L 0 3.5 
" id="mfd591197db" style="stroke:#000000;stroke-width:0.8;"/>
      </defs>
      <g>
       <use style="stroke:#000000;stroke-width:0.8;" x="103.104" xlink:href="#mfd591197db" y="307.584"/>
      </g>
     </g>
     <g id="text_1">
      <!-- 0.0 -->
      <g transform="translate(95.152438 322.182437)scale(0.1 -0.1)">
       <defs>
        <path d="M 2034 4250 
Q 1547 4250 1301 3770 
Q 1056 3291 1056 2328 
Q 1056 1369 1301 889 
Q 1547 409 2034 409 
Q 2525 409 2770 889 
Q 3016 1369 3016 2328 
Q 3016 3291 2770 3770 
Q 2525 4250 2034 4250 
z
M 2034 4750 
Q 2819 4750 3233 4129 
Q 3647 3509 3647 2328 
Q 3647 1150 3233 529 
Q 2819 -91 2034 -91 
Q 1250 -91 836 529 
Q 422 1150 422 2328 
Q 422 3509 836 4129 
Q 1250 4750 2034 4750 
z
" id="DejaVuSans-30" transform="scale(0.015625)"/>
        <path d="M 684 794 
L 1344 794 
L 1344 0 
L 684 0 
L 684 794 
z
" id="DejaVuSans-2e" transform="scale(0.015625)"/>
       </defs>
       <use xlink:href="#DejaVuSans-30"/>
       <use x="63.623047" xlink:href="#DejaVuSans-2e"/>
       <use x="95.410156" xlink:href="#DejaVuSans-30"/>
      </g>
     </g>
    </g>
    <g id="xtick_2">
     <g id="line2d_2">
      <g>
       <use style="stroke:#000000;stroke-width:0.8;" x="156.3264" xlink:href="#mfd591197db" y="307.584"/>
      </g>
     </g>
     <g id="text_2">
      <!-- 0.2 -->
      <g transform="translate(148.374838 322.182437)scale(0.1 -0.1)">
       <defs>
        <path d="M 1228 531 
L 3431 531 
L 3431 0 
L 469 0 
L 469 531 
Q 828 903 1448 1529 
Q 2069 2156 2228 2338 
Q 2531 2678 2651 2914 
Q 2772 3150 2772 3378 
Q 2772 3750 2511 3984 
Q 2250 4219 1831 4219 
Q 1534 4219 1204 4116 
Q 875 4013 500 3803 
L 500 4441 
Q 881 4594 1212 4672 
Q 1544 4750 1819 4750 
Q 2544 4750 2975 4387 
Q 3406 4025 3406 3419 
Q 3406 3131 3298 2873 
Q 3191 2616 2906 2266 
Q 2828 2175 2409 1742 
Q 1991 1309 1228 531 
z
" id="DejaVuSans-32" transform="scale(0.015625)"/>
       </defs>
       <use xlink:href="#DejaVuSans-30"/>
       <use x="63.623047" xlink:href="#DejaVuSans-2e"/>
       <use x="95.410156" xlink:href="#DejaVuSans-32"/>
      </g>
     </g>
    </g>
    <g id="xtick_3">
     <g id="line2d_3">
      <g>
       <use style="stroke:#000000;stroke-width:0.8;" x="209.5488" xlink:href="#mfd591197db" y="307.584"/>
      </g>
     </g>
     <g id="text_3">
      <!-- 0.4 -->
      <g transform="translate(201.597238 322.182437)scale(0.1 -0.1)">
       <defs>
        <path d="M 2419 4116 
L 825 1625 
L 2419 1625 
L 2419 4116 
z
M 2253 4666 
L 3047 4666 
L 3047 1625 
L 3713 1625 
L 3713 1100 
L 3047 1100 
L 3047 0 
L 2419 0 
L 2419 1100 
L 313 1100 
L 313 1709 
L 2253 4666 
z
" id="DejaVuSans-34" transform="scale(0.015625)"/>
       </defs>
       <use xlink:href="#DejaVuSans-30"/>
       <use x="63.623047" xlink:href="#DejaVuSans-2e"/>
       <use x="95.410156" xlink:href="#DejaVuSans-34"/>
      </g>
     </g>
    </g>
    <g id="xtick_4">
     <g id="line2d_4">
      <g>
       <use style="stroke:#000000;stroke-width:0.8;" x="262.7712" xlink:href="#mfd591197db" y="307.584"/>
      </g>
     </g>
     <g id="text_4">
      <!-- 0.6 -->
      <g transform="translate(254.819638 322.182437)scale(0.1 -0.1)">
       <defs>
        <path d="M 2113 2584 
Q 1688 2584 1439 2293 
Q 1191 2003 1191 1497 
Q 1191 994 1439 701 
Q 1688 409 2113 409 
Q 2538 409 2786 701 
Q 3034 994 3034 1497 
Q 3034 2003 2786 2293 
Q 2538 2584 2113 2584 
z
M 3366 4563 
L 3366 3988 
Q 3128 4100 2886 4159 
Q 2644 4219 2406 4219 
Q 1781 4219 1451 3797 
Q 1122 3375 1075 2522 
Q 1259 2794 1537 2939 
Q 1816 3084 2150 3084 
Q 2853 3084 3261 2657 
Q 3669 2231 3669 1497 
Q 3669 778 3244 343 
Q 2819 -91 2113 -91 
Q 1303 -91 875 529 
Q 447 1150 447 2328 
Q 447 3434 972 4092 
Q 1497 4750 2381 4750 
Q 2619 4750 2861 4703 
Q 3103 4656 3366 4563 
z
" id="DejaVuSans-36" transform="scale(0.015625)"/>
       </defs>
       <use xlink:href="#DejaVuSans-30"/>
       <use x="63.623047" xlink:href="#DejaVuSans-2e"/>
       <use x="95.410156" xlink:href="#DejaVuSans-36"/>
      </g>
     </g>
    </g>
    <g id="xtick_5">
     <g id="line2d_5">
      <g>
       <use style="stroke:#000000;stroke-width:0.8;" x="315.9936" xlink:href="#mfd591197db" y="307.584"/>
      </g>
     </g>
     <g id="text_5">
      <!-- 0.8 -->
      <g transform="translate(308.042037 322.182437)scale(0.1 -0.1)">
       <defs>
        <path d="M 2034 2216 
Q 1584 2216 1326 1975 
Q 1069 1734 1069 1313 
Q 1069 891 1326 650 
Q 1584 409 2034 409 
Q 2484 409 2743 651 
Q 3003 894 3003 1313 
Q 3003 1734 2745 1975 
Q 2488 2216 2034 2216 
z
M 1403 2484 
Q 997 2584 770 2862 
Q 544 3141 544 3541 
Q 544 4100 942 4425 
Q 1341 4750 2034 4750 
Q 2731 4750 3128 4425 
Q 3525 4100 3525 3541 
Q 3525 3141 3298 2862 
Q 3072 2584 2669 2484 
Q 3125 2378 3379 2068 
Q 3634 1759 3634 1313 
Q 3634 634 3220 271 
Q 2806 -91 2034 -91 
Q 1263 -91 848 271 
Q 434 634 434 1313 
Q 434 1759 690 2068 
Q 947 2378 1403 2484 
z
M 1172 3481 
Q 1172 3119 1398 2916 
Q 1625 2713 2034 2713 
Q 2441 2713 2670 2916 
Q 2900 3119 2900 3481 
Q 2900 3844 2670 4047 
Q 2441 4250 2034 4250 
Q 1625 4250 1398 4047 
Q 1172 3844 1172 3481 
z
" id="DejaVuSans-38" transform="scale(0.015625)"/>
       </defs>
       <use xlink:href="#DejaVuSans-30"/>
       <use x="63.623047" xlink:href="#DejaVuSans-2e"/>
       <use x="95.410156" xlink:href="#DejaVuSans-38"/>
      </g>
     </g>
    </g>
    <g id="xtick_6">
     <g id="line2d_6">
      <g>
       <use style="stroke:#000000;stroke-width:0.8;" x="369.216" xlink:href="#mfd591197db" y="307.584"/>
      </g>
     </g>
     <g id="text_6">
      <!-- 1.0 -->
      <g transform="translate(361.264437 322.182437)scale(0.1 -0.1)">
       <defs>
        <path d="M 794 531 
L 1825 531 
L 1825 4091 
L 703 3866 
L 703 4441 
L 1819 4666 
L 2450 4666 
L 2450 531 
L 3481 531 
L 3481 0 
L 794 0 
L 794 531 
z
" id="DejaVuSans-31" transform="scale(0.015625)"/>
       </defs>
       <use xlink:href="#DejaVuSans-31"/>
       <use x="63.623047" xlink:href="#DejaVuSans-2e"/>
       <use x="95.410156" xlink:href="#DejaVuSans-30"/>
      </g>
     </g>
    </g>
    <g id="text_7">
     <!-- Proportion of Data -->
     <g transform="translate(190.427969 335.860562)scale(0.1 -0.1)">
      <defs>
       <path d="M 1259 4147 
L 1259 2394 
L 2053 2394 
Q 2494 2394 2734 2622 
Q 2975 2850 2975 3272 
Q 2975 3691 2734 3919 
Q 2494 4147 2053 4147 
L 1259 4147 
z
M 628 4666 
L 2053 4666 
Q 2838 4666 3239 4311 
Q 3641 3956 3641 3272 
Q 3641 2581 3239 2228 
Q 2838 1875 2053 1875 
L 1259 1875 
L 1259 0 
L 628 0 
L 628 4666 
z
" id="DejaVuSans-50" transform="scale(0.015625)"/>
       <path d="M 2631 2963 
Q 2534 3019 2420 3045 
Q 2306 3072 2169 3072 
Q 1681 3072 1420 2755 
Q 1159 2438 1159 1844 
L 1159 0 
L 581 0 
L 581 3500 
L 1159 3500 
L 1159 2956 
Q 1341 3275 1631 3429 
Q 1922 3584 2338 3584 
Q 2397 3584 2469 3576 
Q 2541 3569 2628 3553 
L 2631 2963 
z
" id="DejaVuSans-72" transform="scale(0.015625)"/>
       <path d="M 1959 3097 
Q 1497 3097 1228 2736 
Q 959 2375 959 1747 
Q 959 1119 1226 758 
Q 1494 397 1959 397 
Q 2419 397 2687 759 
Q 2956 1122 2956 1747 
Q 2956 2369 2687 2733 
Q 2419 3097 1959 3097 
z
M 1959 3584 
Q 2709 3584 3137 3096 
Q 3566 2609 3566 1747 
Q 3566 888 3137 398 
Q 2709 -91 1959 -91 
Q 1206 -91 779 398 
Q 353 888 353 1747 
Q 353 2609 779 3096 
Q 1206 3584 1959 3584 
z
" id="DejaVuSans-6f" transform="scale(0.015625)"/>
       <path d="M 1159 525 
L 1159 -1331 
L 581 -1331 
L 581 3500 
L 1159 3500 
L 1159 2969 
Q 1341 3281 1617 3432 
Q 1894 3584 2278 3584 
Q 2916 3584 3314 3078 
Q 3713 2572 3713 1747 
Q 3713 922 3314 415 
Q 2916 -91 2278 -91 
Q 1894 -91 1617 61 
Q 1341 213 1159 525 
z
M 3116 1747 
Q 3116 2381 2855 2742 
Q 2594 3103 2138 3103 
Q 1681 3103 1420 2742 
Q 1159 2381 1159 1747 
Q 1159 1113 1420 752 
Q 1681 391 2138 391 
Q 2594 391 2855 752 
Q 3116 1113 3116 1747 
z
" id="DejaVuSans-70" transform="scale(0.015625)"/>
       <path d="M 1172 4494 
L 1172 3500 
L 2356 3500 
L 2356 3053 
L 1172 3053 
L 1172 1153 
Q 1172 725 1289 603 
Q 1406 481 1766 481 
L 2356 481 
L 2356 0 
L 1766 0 
Q 1100 0 847 248 
Q 594 497 594 1153 
L 594 3053 
L 172 3053 
L 172 3500 
L 594 3500 
L 594 4494 
L 1172 4494 
z
" id="DejaVuSans-74" transform="scale(0.015625)"/>
       <path d="M 603 3500 
L 1178 3500 
L 1178 0 
L 603 0 
L 603 3500 
z
M 603 4863 
L 1178 4863 
L 1178 4134 
L 603 4134 
L 603 4863 
z
" id="DejaVuSans-69" transform="scale(0.015625)"/>
       <path d="M 3513 2113 
L 3513 0 
L 2938 0 
L 2938 2094 
Q 2938 2591 2744 2837 
Q 2550 3084 2163 3084 
Q 1697 3084 1428 2787 
Q 1159 2491 1159 1978 
L 1159 0 
L 581 0 
L 581 3500 
L 1159 3500 
L 1159 2956 
Q 1366 3272 1645 3428 
Q 1925 3584 2291 3584 
Q 2894 3584 3203 3211 
Q 3513 2838 3513 2113 
z
" id="DejaVuSans-6e" transform="scale(0.015625)"/>
       <path id="DejaVuSans-20" transform="scale(0.015625)"/>
       <path d="M 2375 4863 
L 2375 4384 
L 1825 4384 
Q 1516 4384 1395 4259 
Q 1275 4134 1275 3809 
L 1275 3500 
L 2222 3500 
L 2222 3053 
L 1275 3053 
L 1275 0 
L 697 0 
L 697 3053 
L 147 3053 
L 147 3500 
L 697 3500 
L 697 3744 
Q 697 4328 969 4595 
Q 1241 4863 1831 4863 
L 2375 4863 
z
" id="DejaVuSans-66" transform="scale(0.015625)"/>
       <path d="M 1259 4147 
L 1259 519 
L 2022 519 
Q 2988 519 3436 956 
Q 3884 1394 3884 2338 
Q 3884 3275 3436 3711 
Q 2988 4147 2022 4147 
L 1259 4147 
z
M 628 4666 
L 1925 4666 
Q 3281 4666 3915 4102 
Q 4550 3538 4550 2338 
Q 4550 1131 3912 565 
Q 3275 0 1925 0 
L 628 0 
L 628 4666 
z
" id="DejaVuSans-44" transform="scale(0.015625)"/>
       <path d="M 2194 1759 
Q 1497 1759 1228 1600 
Q 959 1441 959 1056 
Q 959 750 1161 570 
Q 1363 391 1709 391 
Q 2188 391 2477 730 
Q 2766 1069 2766 1631 
L 2766 1759 
L 2194 1759 
z
M 3341 1997 
L 3341 0 
L 2766 0 
L 2766 531 
Q 2569 213 2275 61 
Q 1981 -91 1556 -91 
Q 1019 -91 701 211 
Q 384 513 384 1019 
Q 384 1609 779 1909 
Q 1175 2209 1959 2209 
L 2766 2209 
L 2766 2266 
Q 2766 2663 2505 2880 
Q 2244 3097 1772 3097 
Q 1472 3097 1187 3025 
Q 903 2953 641 2809 
L 641 3341 
Q 956 3463 1253 3523 
Q 1550 3584 1831 3584 
Q 2591 3584 2966 3190 
Q 3341 2797 3341 1997 
z
" id="DejaVuSans-61" transform="scale(0.015625)"/>
      </defs>
      <use xlink:href="#DejaVuSans-50"/>
      <use x="58.552734" xlink:href="#DejaVuSans-72"/>
      <use x="97.416016" xlink:href="#DejaVuSans-6f"/>
      <use x="158.597656" xlink:href="#DejaVuSans-70"/>
      <use x="222.074219" xlink:href="#DejaVuSans-6f"/>
      <use x="283.255859" xlink:href="#DejaVuSans-72"/>
      <use x="324.369141" xlink:href="#DejaVuSans-74"/>
      <use x="363.578125" xlink:href="#DejaVuSans-69"/>
      <use x="391.361328" xlink:href="#DejaVuSans-6f"/>
      <use x="452.542969" xlink:href="#DejaVuSans-6e"/>
      <use x="515.921875" xlink:href="#DejaVuSans-20"/>
      <use x="547.708984" xlink:href="#DejaVuSans-6f"/>
      <use x="608.890625" xlink:href="#DejaVuSans-66"/>
      <use x="644.095703" xlink:href="#DejaVuSans-20"/>
      <use x="675.882812" xlink:href="#DejaVuSans-44"/>
      <use x="752.884766" xlink:href="#DejaVuSans-61"/>
      <use x="814.164062" xlink:href="#DejaVuSans-74"/>
      <use x="853.373047" xlink:href="#DejaVuSans-61"/>
     </g>
    </g>
   </g>
   <g id="matplotlib.axis_2">
    <g id="ytick_1">
     <g id="line2d_7">
      <defs>
       <path d="M 0 0 
L -3.5 0 
" id="me548af6930" style="stroke:#000000;stroke-width:0.8;"/>
      </defs>
      <g>
       <use style="stroke:#000000;stroke-width:0.8;" x="103.104" xlink:href="#me548af6930" y="307.584"/>
      </g>
     </g>
     <g id="text_8">
      <!-- 0.0 -->
      <g transform="translate(80.200875 311.383219)scale(0.1 -0.1)">
       <use xlink:href="#DejaVuSans-30"/>
       <use x="63.623047" xlink:href="#DejaVuSans-2e"/>
       <use x="95.410156" xlink:href="#DejaVuSans-30"/>
      </g>
     </g>
    </g>
    <g id="ytick_2">
     <g id="line2d_8">
      <g>
       <use style="stroke:#000000;stroke-width:0.8;" x="103.104" xlink:href="#me548af6930" y="254.3616"/>
      </g>
     </g>
     <g id="text_9">
      <!-- 0.2 -->
      <g transform="translate(80.200875 258.160819)scale(0.1 -0.1)">
       <use xlink:href="#DejaVuSans-30"/>
       <use x="63.623047" xlink:href="#DejaVuSans-2e"/>
       <use x="95.410156" xlink:href="#DejaVuSans-32"/>
      </g>
     </g>
    </g>
    <g id="ytick_3">
     <g id="line2d_9">
      <g>
       <use style="stroke:#000000;stroke-width:0.8;" x="103.104" xlink:href="#me548af6930" y="201.1392"/>
      </g>
     </g>
     <g id="text_10">
      <!-- 0.4 -->
      <g transform="translate(80.200875 204.938419)scale(0.1 -0.1)">
       <use xlink:href="#DejaVuSans-30"/>
       <use x="63.623047" xlink:href="#DejaVuSans-2e"/>
       <use x="95.410156" xlink:href="#DejaVuSans-34"/>
      </g>
     </g>
    </g>
    <g id="ytick_4">
     <g id="line2d_10">
      <g>
       <use style="stroke:#000000;stroke-width:0.8;" x="103.104" xlink:href="#me548af6930" y="147.9168"/>
      </g>
     </g>
     <g id="text_11">
      <!-- 0.6 -->
      <g transform="translate(80.200875 151.716019)scale(0.1 -0.1)">
       <use xlink:href="#DejaVuSans-30"/>
       <use x="63.623047" xlink:href="#DejaVuSans-2e"/>
       <use x="95.410156" xlink:href="#DejaVuSans-36"/>
      </g>
     </g>
    </g>
    <g id="ytick_5">
     <g id="line2d_11">
      <g>
       <use style="stroke:#000000;stroke-width:0.8;" x="103.104" xlink:href="#me548af6930" y="94.6944"/>
      </g>
     </g>
     <g id="text_12">
      <!-- 0.8 -->
      <g transform="translate(80.200875 98.493619)scale(0.1 -0.1)">
       <use xlink:href="#DejaVuSans-30"/>
       <use x="63.623047" xlink:href="#DejaVuSans-2e"/>
       <use x="95.410156" xlink:href="#DejaVuSans-38"/>
      </g>
     </g>
    </g>
    <g id="ytick_6">
     <g id="line2d_12">
      <g>
       <use style="stroke:#000000;stroke-width:0.8;" x="103.104" xlink:href="#me548af6930" y="41.472"/>
      </g>
     </g>
     <g id="text_13">
      <!-- 1.0 -->
      <g transform="translate(80.200875 45.271219)scale(0.1 -0.1)">
       <use xlink:href="#DejaVuSans-31"/>
       <use x="63.623047" xlink:href="#DejaVuSans-2e"/>
       <use x="95.410156" xlink:href="#DejaVuSans-30"/>
      </g>
     </g>
    </g>
    <g id="text_14">
     <!-- Normalized Cumulative Sum -->
     <g transform="translate(74.121188 245.812375)rotate(-90)scale(0.1 -0.1)">
      <defs>
       <path d="M 628 4666 
L 1478 4666 
L 3547 763 
L 3547 4666 
L 4159 4666 
L 4159 0 
L 3309 0 
L 1241 3903 
L 1241 0 
L 628 0 
L 628 4666 
z
" id="DejaVuSans-4e" transform="scale(0.015625)"/>
       <path d="M 3328 2828 
Q 3544 3216 3844 3400 
Q 4144 3584 4550 3584 
Q 5097 3584 5394 3201 
Q 5691 2819 5691 2113 
L 5691 0 
L 5113 0 
L 5113 2094 
Q 5113 2597 4934 2840 
Q 4756 3084 4391 3084 
Q 3944 3084 3684 2787 
Q 3425 2491 3425 1978 
L 3425 0 
L 2847 0 
L 2847 2094 
Q 2847 2600 2669 2842 
Q 2491 3084 2119 3084 
Q 1678 3084 1418 2786 
Q 1159 2488 1159 1978 
L 1159 0 
L 581 0 
L 581 3500 
L 1159 3500 
L 1159 2956 
Q 1356 3278 1631 3431 
Q 1906 3584 2284 3584 
Q 2666 3584 2933 3390 
Q 3200 3197 3328 2828 
z
" id="DejaVuSans-6d" transform="scale(0.015625)"/>
       <path d="M 603 4863 
L 1178 4863 
L 1178 0 
L 603 0 
L 603 4863 
z
" id="DejaVuSans-6c" transform="scale(0.015625)"/>
       <path d="M 353 3500 
L 3084 3500 
L 3084 2975 
L 922 459 
L 3084 459 
L 3084 0 
L 275 0 
L 275 525 
L 2438 3041 
L 353 3041 
L 353 3500 
z
" id="DejaVuSans-7a" transform="scale(0.015625)"/>
       <path d="M 3597 1894 
L 3597 1613 
L 953 1613 
Q 991 1019 1311 708 
Q 1631 397 2203 397 
Q 2534 397 2845 478 
Q 3156 559 3463 722 
L 3463 178 
Q 3153 47 2828 -22 
Q 2503 -91 2169 -91 
Q 1331 -91 842 396 
Q 353 884 353 1716 
Q 353 2575 817 3079 
Q 1281 3584 2069 3584 
Q 2775 3584 3186 3129 
Q 3597 2675 3597 1894 
z
M 3022 2063 
Q 3016 2534 2758 2815 
Q 2500 3097 2075 3097 
Q 1594 3097 1305 2825 
Q 1016 2553 972 2059 
L 3022 2063 
z
" id="DejaVuSans-65" transform="scale(0.015625)"/>
       <path d="M 2906 2969 
L 2906 4863 
L 3481 4863 
L 3481 0 
L 2906 0 
L 2906 525 
Q 2725 213 2448 61 
Q 2172 -91 1784 -91 
Q 1150 -91 751 415 
Q 353 922 353 1747 
Q 353 2572 751 3078 
Q 1150 3584 1784 3584 
Q 2172 3584 2448 3432 
Q 2725 3281 2906 2969 
z
M 947 1747 
Q 947 1113 1208 752 
Q 1469 391 1925 391 
Q 2381 391 2643 752 
Q 2906 1113 2906 1747 
Q 2906 2381 2643 2742 
Q 2381 3103 1925 3103 
Q 1469 3103 1208 2742 
Q 947 2381 947 1747 
z
" id="DejaVuSans-64" transform="scale(0.015625)"/>
       <path d="M 4122 4306 
L 4122 3641 
Q 3803 3938 3442 4084 
Q 3081 4231 2675 4231 
Q 1875 4231 1450 3742 
Q 1025 3253 1025 2328 
Q 1025 1406 1450 917 
Q 1875 428 2675 428 
Q 3081 428 3442 575 
Q 3803 722 4122 1019 
L 4122 359 
Q 3791 134 3420 21 
Q 3050 -91 2638 -91 
Q 1578 -91 968 557 
Q 359 1206 359 2328 
Q 359 3453 968 4101 
Q 1578 4750 2638 4750 
Q 3056 4750 3426 4639 
Q 3797 4528 4122 4306 
z
" id="DejaVuSans-43" transform="scale(0.015625)"/>
       <path d="M 544 1381 
L 544 3500 
L 1119 3500 
L 1119 1403 
Q 1119 906 1312 657 
Q 1506 409 1894 409 
Q 2359 409 2629 706 
Q 2900 1003 2900 1516 
L 2900 3500 
L 3475 3500 
L 3475 0 
L 2900 0 
L 2900 538 
Q 2691 219 2414 64 
Q 2138 -91 1772 -91 
Q 1169 -91 856 284 
Q 544 659 544 1381 
z
M 1991 3584 
L 1991 3584 
z
" id="DejaVuSans-75" transform="scale(0.015625)"/>
       <path d="M 191 3500 
L 800 3500 
L 1894 563 
L 2988 3500 
L 3597 3500 
L 2284 0 
L 1503 0 
L 191 3500 
z
" id="DejaVuSans-76" transform="scale(0.015625)"/>
       <path d="M 3425 4513 
L 3425 3897 
Q 3066 4069 2747 4153 
Q 2428 4238 2131 4238 
Q 1616 4238 1336 4038 
Q 1056 3838 1056 3469 
Q 1056 3159 1242 3001 
Q 1428 2844 1947 2747 
L 2328 2669 
Q 3034 2534 3370 2195 
Q 3706 1856 3706 1288 
Q 3706 609 3251 259 
Q 2797 -91 1919 -91 
Q 1588 -91 1214 -16 
Q 841 59 441 206 
L 441 856 
Q 825 641 1194 531 
Q 1563 422 1919 422 
Q 2459 422 2753 634 
Q 3047 847 3047 1241 
Q 3047 1584 2836 1778 
Q 2625 1972 2144 2069 
L 1759 2144 
Q 1053 2284 737 2584 
Q 422 2884 422 3419 
Q 422 4038 858 4394 
Q 1294 4750 2059 4750 
Q 2388 4750 2728 4690 
Q 3069 4631 3425 4513 
z
" id="DejaVuSans-53" transform="scale(0.015625)"/>
      </defs>
      <use xlink:href="#DejaVuSans-4e"/>
      <use x="74.804688" xlink:href="#DejaVuSans-6f"/>
      <use x="135.986328" xlink:href="#DejaVuSans-72"/>
      <use x="175.349609" xlink:href="#DejaVuSans-6d"/>
      <use x="272.761719" xlink:href="#DejaVuSans-61"/>
      <use x="334.041016" xlink:href="#DejaVuSans-6c"/>
      <use x="361.824219" xlink:href="#DejaVuSans-69"/>
      <use x="389.607422" xlink:href="#DejaVuSans-7a"/>
      <use x="442.097656" xlink:href="#DejaVuSans-65"/>
      <use x="503.621094" xlink:href="#DejaVuSans-64"/>
      <use x="567.097656" xlink:href="#DejaVuSans-20"/>
      <use x="598.884766" xlink:href="#DejaVuSans-43"/>
      <use x="668.708984" xlink:href="#DejaVuSans-75"/>
      <use x="732.087891" xlink:href="#DejaVuSans-6d"/>
      <use x="829.5" xlink:href="#DejaVuSans-75"/>
      <use x="892.878906" xlink:href="#DejaVuSans-6c"/>
      <use x="920.662109" xlink:href="#DejaVuSans-61"/>
      <use x="981.941406" xlink:href="#DejaVuSans-74"/>
      <use x="1021.150391" xlink:href="#DejaVuSans-69"/>
      <use x="1048.933594" xlink:href="#DejaVuSans-76"/>
      <use x="1108.113281" xlink:href="#DejaVuSans-65"/>
      <use x="1169.636719" xlink:href="#DejaVuSans-20"/>
      <use x="1201.423828" xlink:href="#DejaVuSans-53"/>
      <use x="1264.900391" xlink:href="#DejaVuSans-75"/>
      <use x="1328.279297" xlink:href="#DejaVuSans-6d"/>
     </g>
    </g>
   </g>
   <g id="line2d_13">
    <path clip-path="url(#pba433ba2c9)" d="M 103.104 307.584 
L 369.216 41.472 
" style="fill:none;stroke:#808080;stroke-linecap:square;stroke-width:1.5;"/>
   </g>
   <g id="line2d_14">
    <path clip-path="url(#pba433ba2c9)" d="M 103.104 307.584 
L 117.207936 307.469012 
L 132.37632 307.137521 
L 145.948032 306.634781 
L 160.31808 305.874136 
L 172.825344 305.004222 
L 185.066496 303.926939 
L 195.178752 302.810423 
L 205.291008 301.48374 
L 215.403264 299.921672 
L 222.322176 298.640626 
L 229.773312 297.022467 
L 239.087232 294.73965 
L 244.941696 293.103823 
L 251.860608 290.913688 
L 259.045632 288.406375 
L 264.10176 286.439585 
L 270.75456 283.624393 
L 275.544576 281.371683 
L 281.132928 278.460305 
L 286.72128 275.302101 
L 291.245184 272.462063 
L 296.833536 268.681572 
L 301.35744 265.348994 
L 306.413568 261.368166 
L 310.139136 258.175259 
L 312.800256 255.655365 
L 316.791936 251.539847 
L 320.251392 247.604129 
L 323.710848 243.295724 
L 327.436416 238.191114 
L 329.831424 234.597623 
L 333.024768 229.23107 
L 335.685888 224.275729 
L 339.145344 217.269424 
L 341.540352 211.856147 
L 343.93536 205.919566 
L 347.128704 197.40162 
L 350.055936 188.927239 
L 351.91872 182.928458 
L 354.845952 171.974332 
L 357.24096 162.035685 
L 359.635968 150.729722 
L 360.966528 143.593522 
L 362.297088 134.564375 
L 364.425984 118.649683 
L 365.490432 109.528565 
L 366.288768 100.546609 
L 367.087104 90.22205 
L 367.619328 81.464827 
L 368.417664 65.38019 
L 369.216 41.472 
L 369.216 41.472 
" style="fill:none;stroke:#1f77b4;stroke-linecap:square;stroke-width:1.5;"/>
   </g>
   <g id="patch_3">
    <path d="M 103.104 307.584 
L 103.104 41.472 
" style="fill:none;stroke:#000000;stroke-linecap:square;stroke-linejoin:miter;stroke-width:0.8;"/>
   </g>
   <g id="patch_4">
    <path d="M 369.216 307.584 
L 369.216 41.472 
" style="fill:none;stroke:#000000;stroke-linecap:square;stroke-linejoin:miter;stroke-width:0.8;"/>
   </g>
   <g id="patch_5">
    <path d="M 103.104 307.584 
L 369.216 307.584 
" style="fill:none;stroke:#000000;stroke-linecap:square;stroke-linejoin:miter;stroke-width:0.8;"/>
   </g>
   <g id="patch_6">
    <path d="M 103.104 41.472 
L 369.216 41.472 
" style="fill:none;stroke:#000000;stroke-linecap:square;stroke-linejoin:miter;stroke-width:0.8;"/>
   </g>
   <g id="text_15">
    <!-- Lorentz Curve -->
    <g transform="translate(194.314688 35.472)scale(0.12 -0.12)">
     <defs>
      <path d="M 628 4666 
L 1259 4666 
L 1259 531 
L 3531 531 
L 3531 0 
L 628 0 
L 628 4666 
z
" id="DejaVuSans-4c" transform="scale(0.015625)"/>
     </defs>
     <use xlink:href="#DejaVuSans-4c"/>
     <use x="53.962891" xlink:href="#DejaVuSans-6f"/>
     <use x="115.144531" xlink:href="#DejaVuSans-72"/>
     <use x="154.007812" xlink:href="#DejaVuSans-65"/>
     <use x="215.53125" xlink:href="#DejaVuSans-6e"/>
     <use x="278.910156" xlink:href="#DejaVuSans-74"/>
     <use x="318.119141" xlink:href="#DejaVuSans-7a"/>
     <use x="370.609375" xlink:href="#DejaVuSans-20"/>
     <use x="402.396484" xlink:href="#DejaVuSans-43"/>
     <use x="472.220703" xlink:href="#DejaVuSans-75"/>
     <use x="535.599609" xlink:href="#DejaVuSans-72"/>
     <use x="576.712891" xlink:href="#DejaVuSans-76"/>
     <use x="635.892578" xlink:href="#DejaVuSans-65"/>
    </g>
   </g>
  </g>
 </g>
 <defs>
  <clipPath id="pba433ba2c9">
   <rect height="266.112" width="266.112" x="103.104" y="41.472"/>
  </clipPath>
 </defs>
</svg>
